<?xml version="1.0" encoding="utf-8"?>
<!-- Generator: Adobe Illustrator 21.0.2, SVG Export Plug-In . SVG Version: 6.00 Build 0)  -->
<svg version="1.1" id="Layer_1" xmlns="http://www.w3.org/2000/svg" xmlns:xlink="http://www.w3.org/1999/xlink" x="0px" y="0px"
	 viewBox="0 0 297 1598.5" style="enable-background:new 0 0 297 1598.5;" xml:space="preserve">
<style type="text/css">
	.st0{fill:#D33F49;}
	.st1{fill:#067BC2;}
	.st2{fill:#17BEBB;}
	.st3{fill:#FABC3C;}
	.st4{fill:#FE5F55;}
	.st5{fill:none;stroke:#000000;stroke-miterlimit:10;}
	.st6{opacity:7.000000e-02;enable-background:new    ;}
	.st7{display:none;}
	.st8{display:inline;}
	.st9{fill:#FFFFFF;stroke:#000000;stroke-miterlimit:10;}
	.st10{display:inline;fill:#FFFFFF;stroke:#000000;stroke-miterlimit:10;}
	.st11{fill:#FFFFFF;}
	.st12{fill:none;}
	.st13{fill:#FFFFFF;stroke:#000000;stroke-linecap:round;stroke-miterlimit:10;}
	.st14{fill:none;stroke:#000000;stroke-linecap:round;stroke-miterlimit:10;}
</style>
<path class="st0" d="M151.2,1081.1L151.2,1081.1c3.7,0,6.8,3,6.8,6.8v40.9c0,3.7-3,6.8-6.8,6.8l0,0c-3.7,0-6.8-3-6.8-6.8v-40.9
	C144.4,1084.2,147.4,1081.1,151.2,1081.1z"/>
<path class="st1" d="M151.2,431.3L151.2,431.3c3.7,0,6.8,3,6.8,6.8V468c0,3.7-3,6.8-6.8,6.8l0,0c-3.7,0-6.8-3-6.8-6.8v-29.9
	C144.4,434.3,147.4,431.3,151.2,431.3z"/>
<path class="st2" d="M151.2,1349.1L151.2,1349.1c3.7,0,6.8,3,6.8,6.8v62.9c0,3.7-3,6.8-6.8,6.8l0,0c-3.7,0-6.8-3-6.8-6.8v-62.9
	C144.4,1352.1,147.4,1349.1,151.2,1349.1z"/>
<path class="st3" d="M151.2,743.8L151.2,743.8c3.7,0,6.8,3,6.8,6.8v62.9c0,3.7-3,6.8-6.8,6.8l0,0c-3.7,0-6.8-3-6.8-6.8v-62.9
	C144.4,746.8,147.4,743.8,151.2,743.8z"/>
<path class="st4" d="M151.2,282.2L151.2,282.2c3.7,0,6.8,3,6.8,6.8v20c0,3.7-3,6.8-6.8,6.8l0,0c-3.7,0-6.8-3-6.8-6.8v-20
	C144.4,285.2,147.4,282.2,151.2,282.2z"/>
<line class="st5" x1="165.3" y1="730.8" x2="165.3" y2="701.5"/>
<line class="st5" x1="124.7" y1="445.9" x2="124.7" y2="416.6"/>
<line class="st5" x1="174.7" y1="1382.4" x2="174.7" y2="1320.6"/>
<line class="st5" x1="134.1" y1="834.9" x2="134.1" y2="805.5"/>
<line class="st5" x1="174.7" y1="849.6" x2="174.7" y2="799.4"/>
<line class="st5" x1="140.6" y1="1024.1" x2="140.6" y2="994.7"/>
<line class="st5" x1="160.3" y1="1036.9" x2="160.3" y2="1007.5"/>
<line class="st5" x1="151.2" y1="175.5" x2="151.2" y2="204.9"/>
<circle class="st6" cx="184.2" cy="936" r="15.6"/>
<circle class="st6" cx="124.7" cy="669.4" r="9.3"/>
<circle class="st6" cx="174.7" cy="356.7" r="9.3"/>
<circle class="st6" cx="118.1" cy="1226.9" r="13.8"/>
<g>
	<polygon class="st4" points="155,1209.2 147.3,1209.2 151.2,1214.8 	"/>
	<polygon class="st4" points="155,1201.2 147.3,1201.2 151.2,1206.8 	"/>
	<polygon class="st4" points="155,1193.1 147.3,1193.1 151.2,1198.7 	"/>
	<polygon class="st4" points="155,1185.1 147.3,1185.1 151.2,1190.7 	"/>
</g>
<g class="st7">
	<g class="st8">
		<path class="st9" d="M131.5,634h9.4c0.8,0,1.5,0.7,1.5,1.5v8.6c0,0.8,0.7,1.5,1.5,1.5h13.6c0.8,0,1.5-0.7,1.5-1.5v-8.6
			c0-0.8,0.7-1.5,1.5-1.5h9.4c0.8,0,1.5-0.7,1.5-1.5v-13.6c0-0.8-0.7-1.5-1.5-1.5h-9.4c-0.8,0-1.5-0.7-1.5-1.5v-8.7
			c0-0.8-0.7-1.5-1.5-1.5h-13.6c-0.8,0-1.5,0.7-1.5,1.5v8.6c0,0.8-0.7,1.5-1.5,1.5h-9.4c-0.8,0-1.5,0.7-1.5,1.5v13.6
			C129.9,633.3,130.6,634,131.5,634z"/>
	</g>
	<circle class="st10" cx="163.6" cy="625.5" r="5.4"/>
	<g class="st8">
		<path d="M164.9,624.1v2.6h-2.6v-2.6H164.9 M165.9,623.1h-4.6v4.6h4.6V623.1L165.9,623.1z"/>
	</g>
	<circle class="st10" cx="137.7" cy="625.8" r="5.4"/>
	<g class="st8">
		<path d="M137.7,624c1,0,1.9,0.8,1.9,1.9c0,1.1-0.8,1.9-1.9,1.9s-1.9-0.8-1.9-1.9C135.8,624.8,136.7,624,137.7,624 M137.7,623
			c-1.6,0-2.9,1.3-2.9,2.9c0,1.6,1.3,2.9,2.9,2.9c1.6,0,2.9-1.3,2.9-2.9C140.6,624.2,139.3,623,137.7,623L137.7,623z"/>
	</g>
	<circle class="st10" cx="150.7" cy="637.6" r="5.4"/>
	<g class="st8">
		<path d="M151.8,636.8l-1.1,1.9l-1.1-1.9H151.8 M153.5,635.8h-5.8l2.9,4.8L153.5,635.8L153.5,635.8z"/>
	</g>
	<circle class="st10" cx="150.7" cy="613.7" r="5.4"/>
	<g class="st8">
		<line class="st5" x1="152.6" y1="615.6" x2="148.7" y2="611.8"/>
	</g>
	<g class="st8">
		<line class="st5" x1="152.6" y1="611.8" x2="148.7" y2="615.6"/>
	</g>
</g>
<g>
	<rect x="147" y="580.1" class="st9" width="4.7" height="9"/>
	<g>
		<path class="st11" d="M155.1,633.9c-0.3,0-0.7-0.1-0.9-0.5l-0.3-0.5c-1-1.4-2.6-2-4.3-2s-3.3,0.8-4.3,2l-0.3,0.5
			c-0.2,0.3-0.6,0.5-0.9,0.5c-0.6,0-1.1-0.5-1.3-1c-0.6-3.4-2.6-6.3-5.7-7.6c-0.3-0.1-0.5-0.5-0.5-0.8v-13.9c0-0.5,0.2-1,0.6-1.4
			c4.2-4.3,6.8-9.9,7.5-15.8l0.6-4.9c0.1-0.6,0.6-1,1.1-1h6.5c0.6,0,1.1,0.5,1.1,1l0.6,4.9c0.7,5.9,3.4,11.6,7.5,15.8
			c0.3,0.3,0.6,0.8,0.6,1.4v13.9c0,0.3-0.2,0.6-0.5,0.8c-3.1,1.4-5.2,4.2-5.7,7.5C156.2,633.5,155.8,633.9,155.1,633.9z"/>
		<path d="M152.7,588.1c0.3,0,0.6,0.2,0.6,0.6l0.6,4.9c0.7,6,3.4,11.8,7.7,16.1c0.2,0.2,0.3,0.6,0.3,0.9v13.9c0,0.1-0.1,0.2-0.1,0.2
			c-3.2,1.5-5.5,4.4-6,8v0.1c0,0.3-0.3,0.6-0.7,0.6c-0.2,0-0.3-0.1-0.5-0.2l-0.3-0.5c-1.1-1.5-3-2.3-4.8-2.3s-3.6,0.8-4.8,2.3
			l-0.3,0.5c-0.1,0.1-0.3,0.2-0.5,0.2c-0.3,0-0.6-0.2-0.7-0.6v-0.1c-0.6-3.5-2.8-6.5-6-8c-0.1,0-0.1-0.1-0.1-0.2v-13.9
			c0-0.3,0.1-0.7,0.3-0.9c4.3-4.3,7.1-10.1,7.7-16.1l0.6-4.9c0-0.3,0.3-0.6,0.6-0.6h3.2H152.7 M152.7,587h-3.2h-3.2
			c-0.9,0-1.6,0.7-1.7,1.6l-0.6,4.9c-0.7,5.9-3.3,11.4-7.4,15.6c-0.5,0.5-0.7,1.1-0.7,1.7v13.9c0,0.6,0.3,1,0.8,1.3
			c2.8,1.3,4.9,4,5.3,7.1v0.1c0.1,0.9,0.9,1.5,1.8,1.5c0.6,0,1-0.2,1.4-0.7l0.3-0.5c1-1.3,2.4-1.9,3.9-1.9c1.5,0,2.8,0.7,3.9,1.9
			l0.3,0.5c0.3,0.5,0.9,0.7,1.4,0.7c0.9,0,1.6-0.7,1.8-1.5v-0.1c0.5-3.2,2.5-5.8,5.3-7.1c0.5-0.2,0.8-0.7,0.8-1.3v-13.9
			c0-0.7-0.2-1.3-0.7-1.7c-4.1-4.2-6.7-9.7-7.4-15.6l-0.6-4.9C154.3,587.6,153.6,587,152.7,587L152.7,587z"/>
	</g>
	<g>
		<path class="st11" d="M146.2,581.7c-0.6,0-1.1-0.5-1.1-1l-0.6-4.9c-0.7-5.9-3.4-11.6-7.5-15.8c-0.3-0.3-0.6-0.8-0.6-1.4v-13.9
			c0-0.3,0.2-0.6,0.5-0.8c3.1-1.4,5.2-4.2,5.7-7.5c0.1-0.7,0.6-1.1,1.3-1.1c0.3,0,0.7,0.2,0.9,0.5l0.3,0.5c1,1.4,2.6,2,4.3,2
			s3.3-0.8,4.3-2l0.3-0.5c0.2-0.3,0.6-0.5,0.9-0.5c0.6,0,1.1,0.5,1.3,1c0.6,3.4,2.6,6.3,5.7,7.6c0.3,0.1,0.5,0.5,0.5,0.8v13.9
			c0,0.5-0.2,1-0.6,1.4c-4.2,4.3-6.8,9.9-7.5,15.8l-0.6,4.9c-0.1,0.6-0.6,1-1.1,1H146.2L146.2,581.7z"/>
		<path d="M155.1,535.9c0.3,0,0.6,0.2,0.7,0.6v0.1c0.6,3.5,2.8,6.5,6,8c0.1,0,0.1,0.1,0.1,0.2v13.9c0,0.3-0.1,0.7-0.3,0.9
			c-4.3,4.3-7.1,10.1-7.7,16.1l-0.6,4.9c0,0.3-0.3,0.6-0.6,0.6h-3.2h-3.2c-0.3,0-0.6-0.2-0.6-0.6l-0.6-4.9c-0.7-6-3.4-11.8-7.7-16.1
			c-0.2-0.2-0.3-0.6-0.3-0.9v-13.9c0-0.1,0.1-0.2,0.1-0.2c3.2-1.5,5.5-4.4,6-8v-0.1c0-0.3,0.3-0.6,0.7-0.6c0.2,0,0.3,0.1,0.5,0.2
			l0.3,0.5c1.1,1.5,3,2.3,4.8,2.3s3.6-0.8,4.8-2.3l0.3-0.5C154.7,536,155,535.9,155.1,535.9 M155.1,534.8L155.1,534.8
			c-0.6,0-1,0.2-1.4,0.7l-0.3,0.5c-1,1.3-2.4,1.9-3.9,1.9c-1.5,0-2.8-0.7-3.9-1.9l-0.3-0.5c-0.3-0.5-0.9-0.7-1.4-0.7
			c-0.9,0-1.6,0.7-1.8,1.5v0.1c-0.5,3.2-2.5,5.8-5.3,7.1c-0.5,0.2-0.8,0.7-0.8,1.3v13.9c0,0.7,0.2,1.3,0.7,1.7
			c4.1,4.2,6.7,9.7,7.4,15.6l0.6,4.9c0.1,0.9,0.9,1.6,1.7,1.6h3.2h3.2c0.9,0,1.6-0.7,1.7-1.6l0.6-4.9c0.7-5.9,3.3-11.4,7.4-15.6
			c0.5-0.5,0.7-1.1,0.7-1.7v-13.9c0-0.6-0.3-1-0.8-1.3c-2.8-1.3-4.9-4-5.3-7.1v-0.1C156.8,535.4,156,534.8,155.1,534.8L155.1,534.8z
			"/>
	</g>
	<path d="M145.5,624.5c0-1.8,0.7-2.6,1.5-3.2c-0.6-0.9-1.5-3.2-1.5-5.1c0-1.9,0.6-4.2,0.9-4.8c-0.7-0.6-1.3-4.1-1.3-4.1
		s-2.2,3.3-2.4,6.6c1.7-2,1.7,1.7,1.7,2.4c0,0.6,0.3,4.1-1.1,3.6C144.2,622.2,145,623.9,145.5,624.5z"/>
	<path d="M153,624.5c0-1.8-0.7-2.6-1.5-3.2c0.6-0.9,1.5-3.2,1.5-5.1c0-1.9-0.6-4.2-0.9-4.8c0.7-0.6,1.3-4.1,1.3-4.1s2.2,3.3,2.4,6.6
		c-1.7-2-1.7,1.7-1.7,2.4c0,0.6-0.3,4.1,1.1,3.6C154.3,622.2,153.6,623.9,153,624.5z"/>
	<path d="M153.4,544.9c0,1.8-0.7,2.6-1.5,3.2c0.6,0.9,1.5,3.2,1.5,5.1s-0.6,4.2-0.9,4.8c0.7,0.6,1.3,4.1,1.3,4.1s2.2-3.3,2.4-6.6
		c-1.7,2-1.7-1.7-1.7-2.4c0-0.6-0.3-4.1,1.1-3.6C154.7,547.1,153.9,545.4,153.4,544.9z"/>
	<path d="M145.9,544.9c0,1.8,0.7,2.6,1.5,3.2c-0.6,0.9-1.5,3.2-1.5,5.1s0.6,4.2,0.9,4.8c-0.7,0.6-1.3,4.1-1.3,4.1s-2.2-3.3-2.4-6.6
		c1.7,2,1.7-1.7,1.7-2.4c0-0.6,0.3-4.1-1.1-3.6C144.6,547.1,145.3,545.4,145.9,544.9z"/>
	<g>
		<path class="st12" d="M144.2,605.3c0.6-4.2,2.8-7.8,3.3-9.6c0.9-3.6,0.6-8.6,0.6-8.6"/>
		<path class="st12" d="M154.4,605.3c-0.6-4.2-2.8-7.8-3.3-9.6c-0.9-3.6-0.6-8.6-0.6-8.6"/>
		<path class="st12" d="M154.8,564c-0.6,4.2-2.8,7.8-3.3,9.6c-0.9,3.8-0.9,3.6-0.6,8.6"/>
		<path class="st12" d="M144.4,564c0.6,4.2,2.8,7.8,3.3,9.6c0.9,3.6,0.6,8.6,0.6,8.6"/>
	</g>
</g>
<g>
	<path class="st13" d="M135.1,1270.6c-0.2-0.6,0-1.2,0.6-1.4c2.7-1.3,7.4-3,13.5-2.9c5.4,0.1,9.7,1.7,12.3,2.9
		c0.6,0.3,0.8,0.9,0.6,1.5c-1.3,3-2.6,9.9-4,10.6c-1.3,0.1-2.6,9.8-4,11.6c-1.3,5-2.6,5-4,11.2c-0.5,1.4-2.5,1.4-3,0
		c0-2.4-1.3-1.4-3.1-8.7c-1.8-2.4-4-14.6-5.8-16.1C136.4,1277.2,135.1,1267.4,135.1,1270.6z"/>
	<path class="st13" d="M162.3,1271.6c-0.3,0-0.6-0.1-0.9-0.2c-3.8-2-8.1-3.1-12.4-3.2c-5.9-0.1-10.6,1.7-13.5,3.2
		c-1.1,0.6-2.4,0-2.8-1.2c-0.3-0.9,0.2-2,1.1-2.4c3.3-1.7,8.6-3.7,15.3-3.6c4.9,0.1,9.7,1.3,14,3.6c0.9,0.5,1.4,1.5,1,2.4
		C163.9,1271.1,163.1,1271.6,162.3,1271.6z"/>
	<circle class="st13" cx="144.2" cy="1280" r="2"/>
	<circle class="st13" cx="149.9" cy="1289.6" r="1.4"/>
	<circle class="st13" cx="154.9" cy="1274.9" r="1.8"/>
	<line class="st14" x1="141.6" y1="1274.9" x2="145" y2="1273.1"/>
	<line class="st14" x1="150.3" y1="1278.5" x2="150.3" y2="1281.2"/>
	<line class="st14" x1="145.1" y1="1287.3" x2="146.6" y2="1287.2"/>
	<line class="st14" x1="147.5" y1="1295.5" x2="148.1" y2="1297.6"/>
	<line class="st14" x1="152" y1="1284" x2="153.1" y2="1284.7"/>
</g>
<g>
	<path class="st13" d="M135.1,361.6c-0.2-0.6,0-1.2,0.6-1.4c2.7-1.3,7.4-3,13.5-2.9c5.4,0.1,9.7,1.7,12.3,2.9
		c0.6,0.3,0.8,0.9,0.6,1.5c-1.3,3-2.6,9.9-4,10.6c-1.3,0.1-2.6,9.8-4,11.6c-1.3,5-2.6,5-4,11.2c-0.5,1.4-2.5,1.4-3,0
		c0-2.4-1.3-1.4-3.1-8.7c-1.8-2.4-4-14.6-5.8-16.1C136.4,368.3,135.1,358.4,135.1,361.6z"/>
	<path class="st13" d="M162.3,362.6c-0.3,0-0.6-0.1-0.9-0.2c-3.8-2-8.1-3.1-12.4-3.2c-5.9-0.1-10.6,1.7-13.5,3.2
		c-1.1,0.6-2.4,0-2.8-1.2c-0.3-0.9,0.2-2,1.1-2.4c3.3-1.7,8.6-3.7,15.3-3.6c4.9,0.1,9.7,1.3,14,3.6c0.9,0.5,1.4,1.5,1,2.4
		C163.9,362.1,163.1,362.6,162.3,362.6z"/>
	<circle class="st13" cx="144.2" cy="371" r="2"/>
	<circle class="st13" cx="149.9" cy="380.6" r="1.4"/>
	<circle class="st13" cx="154.9" cy="365.9" r="1.8"/>
	<line class="st14" x1="141.6" y1="365.9" x2="145" y2="364.1"/>
	<line class="st14" x1="150.3" y1="369.6" x2="150.3" y2="372.2"/>
	<line class="st14" x1="145.1" y1="378.3" x2="146.6" y2="378.2"/>
	<line class="st14" x1="147.5" y1="386.6" x2="148.1" y2="388.6"/>
	<line class="st14" x1="152" y1="375.1" x2="153.1" y2="375.8"/>
</g>
<g>
	<g>
		<polygon class="st9" points="142.4,869.3 142.4,867.1 152.5,867.1 152.5,865.8 154.8,865.8 154.8,869.3 		"/>
		<path class="st9" d="M142.4,910.6v-2.2h4.1c0.7,0,1.2-0.5,1.2-1.2s-0.5-1.2-1.2-1.2h-3v-2.2h3c0.7,0,1.2-0.5,1.2-1.2
			c0-0.7-0.5-1.2-1.2-1.2h-4.1v-2.2h4.1c1.9,0,3.4,1.5,3.4,3.4c0,0.9-0.3,1.7-0.9,2.3c0.6,0.6,0.9,1.4,0.9,2.3
			c0,1.9-1.5,3.4-3.4,3.4H142.4z"/>
		<path class="st9" d="M142.4,946.9v-2.2h4.1c0.7,0,1.2-0.5,1.2-1.2s-0.5-1.2-1.2-1.2h-3V940h3c0.7,0,1.2-0.5,1.2-1.2
			c0-0.7-0.5-1.2-1.2-1.2h-4.1v-2.2h4.1c1.9,0,3.4,1.5,3.4,3.4c0,0.9-0.3,1.7-0.9,2.3c0.6,0.6,0.9,1.4,0.9,2.3
			c0,1.9-1.5,3.4-3.4,3.4H142.4z"/>
		<path class="st9" d="M142.4,960.8v-2.2h4.1c0.7,0,1.2-0.5,1.2-1.2s-0.5-1.2-1.2-1.2h-3v-2.2h3c0.7,0,1.2-0.5,1.2-1.2
			c0-0.7-0.5-1.2-1.2-1.2h-4.1v-2.2h4.1c1.9,0,3.4,1.5,3.4,3.4c0,0.9-0.3,1.7-0.9,2.3c0.6,0.6,0.9,1.4,0.9,2.3
			c0,1.9-1.5,3.4-3.4,3.4H142.4z"/>
		<path class="st9" d="M142.4,885v-3.3h2.2v3.3c0,0.7,0.6,1.3,1.3,1.3h1c-0.2-0.4-0.2-0.8-0.2-1.3v-0.8c0-1.9,1.6-3.5,3.5-3.5h1.1
			c1.9,0,3.5,1.6,3.5,3.5v0.8c0,1.6-1.1,3-2.7,3.4v0.1h-6.2C144,888.5,142.4,886.9,142.4,885z M152.5,884.2c0-0.7-0.6-1.3-1.3-1.3
			h-1.1c-0.7,0-1.3,0.6-1.3,1.3v0.8c0,0.7,0.6,1.3,1.3,1.3h1.1c0.7,0,1.3-0.6,1.3-1.3V884.2z"/>
		<path class="st9" d="M142.4,920.2v-3.3h2.2v3.3c0,0.7,0.6,1.3,1.3,1.3h1c-0.2-0.4-0.2-0.8-0.2-1.3v-0.8c0-1.9,1.6-3.5,3.5-3.5h1.1
			c1.9,0,3.5,1.6,3.5,3.5v0.8c0,1.6-1.1,3-2.7,3.4v0.1h-6.2C144,923.7,142.4,922.2,142.4,920.2z M152.5,919.5c0-0.7-0.6-1.3-1.3-1.3
			h-1.1c-0.7,0-1.3,0.6-1.3,1.3v0.8c0,0.7,0.6,1.3,1.3,1.3h1.1c0.7,0,1.3-0.6,1.3-1.3V919.5z"/>
		<path class="st9" d="M142.4,929.8v-3.3h2.2v3.3c0,0.7,0.6,1.3,1.3,1.3h1c-0.2-0.4-0.2-0.8-0.2-1.3v-0.8c0-1.9,1.6-3.5,3.5-3.5h1.1
			c1.9,0,3.5,1.6,3.5,3.5v0.8c0,1.6-1.1,3-2.7,3.4v0.1h-6.2C144,933.4,142.4,931.8,142.4,929.8z M152.5,929.1c0-0.7-0.6-1.3-1.3-1.3
			h-1.1c-0.7,0-1.3,0.6-1.3,1.3v0.8c0,0.7,0.6,1.3,1.3,1.3h1.1c0.7,0,1.3-0.6,1.3-1.3V929.1z"/>
		<path class="st9" d="M142.4,875.4v-3.4h2.2v3.4c0,0.5,0.4,0.9,0.9,0.9h1c0.5,0,0.9-0.4,0.9-0.9v-2.2h2.2v2.2
			c0,0.5,0.4,0.9,0.9,0.9h1c0.5,0,0.9-0.4,0.9-0.9v-3.4h2.2v3.4c0,1.7-1.4,3.2-3.2,3.2h-1c-0.8,0-1.5-0.3-2-0.7
			c-0.6,0.5-1.3,0.7-2,0.7h-1C143.8,878.6,142.4,877.2,142.4,875.4z"/>
		<path class="st9" d="M142.3,896.7v-2.9c0-1.8,1.5-3.3,3.3-3.3h1.2c1.8,0,3.3,1.5,3.3,3.3v2.9h-2.2v-2.9c0-0.6-0.5-1-1-1h-1.2
			c-0.6,0-1,0.5-1,1v2.9H142.3z"/>
	</g>
</g>
<g>
	<line class="st5" x1="156.3" y1="236.4" x2="149.3" y2="243.4"/>
	<line class="st5" x1="149.3" y1="236.4" x2="156.3" y2="243.4"/>
</g>
<circle class="st5" cx="179.4" cy="1166.1" r="4.8"/>
<circle class="st5" cx="128.3" cy="495.4" r="3.6"/>
</svg>
