<?xml version="1.0" encoding="utf-8"?>
<!-- Generator: Adobe Illustrator 21.0.2, SVG Export Plug-In . SVG Version: 6.00 Build 0)  -->
<svg version="1.1" id="Layer_1" xmlns="http://www.w3.org/2000/svg" xmlns:xlink="http://www.w3.org/1999/xlink" x="0px" y="0px"
	 viewBox="0 0 297 1443.3" style="enable-background:new 0 0 297 1443.3;" xml:space="preserve">
<style type="text/css">
	.st0{fill:#067BC2;}
	.st1{fill:#FE5F55;}
	.st2{fill:#D33F49;}
	.st3{fill:#17BEBB;}
	.st4{fill:#FABC3C;}
	.st5{fill:none;stroke:#000000;stroke-miterlimit:10;}
	.st6{opacity:7.000000e-02;enable-background:new    ;}
	.st7{fill:#1A8420;}
	.st8{fill:#FFFFFF;}
	.st9{fill:#FFFFFF;stroke:#000000;stroke-miterlimit:10;}
	.st10{display:none;}
	.st11{display:inline;}
	.st12{display:inline;fill:#FFFFFF;stroke:#000000;stroke-miterlimit:10;}
	.st13{fill:none;stroke:#000000;stroke-linecap:round;stroke-miterlimit:10;}
</style>
<path class="st0" d="M151.2,887.7L151.2,887.7c3.7,0,6.8,3,6.8,6.8v40.9c0,3.7-3,6.8-6.8,6.8l0,0c-3.7,0-6.8-3-6.8-6.8v-40.9
	C144.4,890.8,147.4,887.7,151.2,887.7z"/>
<path class="st1" d="M151.2,466.8L151.2,466.8c3.7,0,6.8,3,6.8,6.8v29.9c0,3.7-3,6.8-6.8,6.8l0,0c-3.7,0-6.8-3-6.8-6.8v-29.9
	C144.4,469.8,147.4,466.8,151.2,466.8z"/>
<path class="st2" d="M151.2,1057.2L151.2,1057.2c3.7,0,6.8,3,6.8,6.8v62.9c0,3.7-3,6.8-6.8,6.8l0,0c-3.7,0-6.8-3-6.8-6.8V1064
	C144.4,1060.2,147.4,1057.2,151.2,1057.2z"/>
<path class="st3" d="M151.2,618.6L151.2,618.6c3.7,0,6.8,3,6.8,6.8v62.9c0,3.7-3,6.8-6.8,6.8l0,0c-3.7,0-6.8-3-6.8-6.8v-62.9
	C144.4,621.6,147.4,618.6,151.2,618.6z"/>
<path class="st4" d="M151.2,214.5L151.2,214.5c3.7,0,6.8,3,6.8,6.8v20c0,3.7-3,6.8-6.8,6.8l0,0c-3.7,0-6.8-3-6.8-6.8v-20
	C144.4,217.5,147.4,214.5,151.2,214.5z"/>
<line class="st5" x1="165.3" y1="625.6" x2="165.3" y2="596.3"/>
<line class="st5" x1="134.1" y1="709.7" x2="134.1" y2="680.3"/>
<line class="st5" x1="174.7" y1="724.4" x2="174.7" y2="674.2"/>
<line class="st5" x1="140.6" y1="847.9" x2="140.6" y2="818.5"/>
<line class="st5" x1="160.3" y1="860.7" x2="160.3" y2="831.3"/>
<line class="st5" x1="151.2" y1="404.5" x2="151.2" y2="433.9"/>
<line class="st5" x1="113.9" y1="231.3" x2="113.9" y2="260.7"/>
<line class="st5" x1="170.3" y1="389.8" x2="170.3" y2="419.2"/>
<circle class="st6" cx="184.2" cy="780.8" r="15.6"/>
<circle class="st6" cx="162.7" cy="248.1" r="15.6"/>
<circle class="st6" cx="124.7" cy="594.2" r="9.3"/>
<circle class="st6" cx="118.1" cy="1014" r="13.8"/>
<g>
	<circle class="st7" cx="149.5" cy="550.5" r="2.6"/>
	<circle class="st7" cx="149.5" cy="558.2" r="2.6"/>
	<circle class="st7" cx="149.5" cy="566" r="2.6"/>
	<circle class="st7" cx="149.5" cy="573.7" r="2.6"/>
</g>
<g>
	<polygon class="st1" points="155,1000.1 147.3,1000.1 151.2,1005.7 	"/>
	<polygon class="st1" points="155,992.1 147.3,992.1 151.2,997.7 	"/>
	<polygon class="st1" points="155,984 147.3,984 151.2,989.6 	"/>
	<polygon class="st1" points="155,976 147.3,976 151.2,981.6 	"/>
</g>
<g>
	<g>
		<g>
			<path class="st8" d="M143.5,1211.6l-17-48.5c-0.2-0.6-0.1-1.3,0.2-1.8c0.4-0.6,1.1-0.9,1.7-0.9c0.4,0,1,0.1,1.5,0.7l15.4,18.2
				c0.8,1,2,1.5,3.3,1.5c1.3,0,2.5-0.6,3.3-1.6l14.9-18c0.5-0.6,1.1-0.8,1.6-0.8c0.7,0,1.4,0.4,1.8,0.9c0.4,0.5,0.5,1.2,0.2,1.9
				l-16.9,48.2l-4.8,4.5L143.5,1211.6z"/>
			<path d="M128.5,1160.9L128.5,1160.9c0.4,0,0.8,0.2,1.1,0.6l15.4,18.2c0.9,1.1,2.3,1.7,3.7,1.7c1.4,0,2.8-0.6,3.7-1.8l14.9-18
				c0.4-0.5,0.9-0.6,1.2-0.6c0.5,0,1.1,0.3,1.4,0.7c0.2,0.3,0.4,0.8,0.2,1.4l-16.9,48.1l-4.4,4.1l-4.7-4l-17-48.3
				c-0.2-0.6,0-1.1,0.2-1.4C127.5,1161.2,128,1160.9,128.5,1160.9 M128.5,1159.9c-1.6,0-3.1,1.5-2.4,3.4l17.1,48.6l5.6,4.7l5.3-4.9
				l17-48.3c0.7-1.9-0.9-3.4-2.5-3.4c-0.7,0-1.4,0.3-1.9,0.9l-14.9,18c-0.8,0.9-1.9,1.4-2.9,1.4c-1.1,0-2.2-0.5-2.9-1.4l-15.4-18.2
				C129.8,1160.2,129.1,1159.9,128.5,1159.9L128.5,1159.9z"/>
		</g>
		<g>
			<path class="st8" d="M148.4,1274.3c-0.5,0-1-0.3-1.1-0.8l-3.4-13.3l0.8-0.5c0.7-0.5,1.3-1.2,1.7-2l0.4-0.9h3.5l0.4,1
				c0.3,0.7,0.8,1.3,1.4,1.7l0.9,0.6l-3.4,13.3c-0.1,0.5-0.6,0.8-1.1,0.8H148.4z"/>
			<path d="M149.9,1257.3l0.3,0.7c0.3,0.8,0.9,1.5,1.6,1.9l0.6,0.4l-3.3,12.9c-0.1,0.3-0.3,0.5-0.6,0.5h-0.2c-0.3,0-0.5-0.2-0.6-0.5
				l-3.3-12.9l0.5-0.3c0.8-0.5,1.5-1.3,1.9-2.2l0.2-0.6H149.9 M150.6,1256.3h-4.2l-0.5,1.2c-0.3,0.7-0.8,1.3-1.5,1.8l-1.1,0.7
				l3.5,13.6c0.2,0.7,0.8,1.2,1.6,1.2h0.2c0.7,0,1.4-0.5,1.6-1.2l3.5-13.6l-1.2-0.8c-0.6-0.4-1-0.9-1.2-1.5L150.6,1256.3
				L150.6,1256.3z"/>
		</g>
		<g>
			<path class="st8" d="M148.4,1260c-0.5-0.8-0.9-1.6-1.1-2.5l-0.3-1.3l-0.9-47.5h4.9l-0.9,47.6l-0.2,0.9c-0.2,1.1-0.6,2.1-1.3,3
				l0,0L148.4,1260z"/>
			<path d="M150.4,1209.2l-0.9,47l-0.2,0.9c-0.2,0.8-0.4,1.5-0.8,2.2c-0.4-0.6-0.6-1.3-0.8-2l-0.3-1.2l-0.9-46.9H150.4
				 M151.5,1208.2h-5.9l0.9,48.1l0.4,1.3c0.3,0.9,0.7,1.8,1.2,2.7l0.6,0.9l0.4-0.6c0.7-1,1.1-2,1.3-3.2l0.2-1L151.5,1208.2
				L151.5,1208.2z"/>
		</g>
		<line class="st9" x1="150.5" y1="1256.4" x2="146.5" y2="1256.4"/>
		<circle cx="149.3" cy="1268.3" r="0.6"/>
		<circle cx="150.5" cy="1262.9" r="0.6"/>
		<circle cx="146.5" cy="1263.1" r="0.6"/>
		<circle cx="147.7" cy="1268.3" r="0.6"/>
		<path class="st9" d="M144.9,1184.8h7.2c0.5,0,0.9,0.4,0.9,0.9v3.2c0,0.5-0.4,0.9-0.9,0.9h-7.2c-0.5,0-0.9-0.4-0.9-0.9v-3.2
			C144,1185.2,144.4,1184.8,144.9,1184.8z"/>
		<path class="st9" d="M145.1,1192.1h6.8c0.3,0,0.5,0.2,0.5,0.5v2.1c0,0.3-0.2,0.5-0.5,0.5h-6.8c-0.3,0-0.5-0.2-0.5-0.5v-2.1
			C144.6,1192.3,144.8,1192.1,145.1,1192.1z"/>
		<path class="st9" d="M145.9,1199.8l5.7,1.5c0.5,0.1,0.8,0.7,0.7,1.2v0c-0.1,0.5-0.7,0.8-1.2,0.7l-5.7-1.5
			c-0.5-0.1-0.8-0.7-0.7-1.2l0,0C144.8,1200,145.4,1199.7,145.9,1199.8z"/>
		<path d="M144.6,1267.8l0.4,1.6c0.1,0.3-0.1,0.5-0.4,0.6l0,0c-0.6,0.2-1.2-0.2-1.4-0.8l-0.1-0.4c-0.2-0.6,0.2-1.2,0.8-1.4l0,0
			C144.2,1267.4,144.5,1267.6,144.6,1267.8z"/>
		<path d="M143.2,1262.7l0.4,1.6c0.1,0.3-0.1,0.5-0.4,0.6l0,0c-0.6,0.2-1.2-0.2-1.4-0.8l-0.1-0.4c-0.2-0.6,0.2-1.2,0.8-1.4l0,0
			C142.9,1262.3,143.2,1262.4,143.2,1262.7z"/>
		<path d="M152.4,1267.8l-0.4,1.6c-0.1,0.3,0.1,0.5,0.4,0.6l0,0c0.6,0.2,1.2-0.2,1.4-0.8l0.1-0.4c0.2-0.6-0.2-1.2-0.8-1.4l0,0
			C152.7,1267.4,152.4,1267.6,152.4,1267.8z"/>
		<path d="M153.9,1262.7l-0.4,1.6c-0.1,0.3,0.1,0.5,0.4,0.6l0,0c0.6,0.2,1.2-0.2,1.4-0.8l0.1-0.4c0.2-0.6-0.2-1.2-0.8-1.4l0,0
			C154.2,1262.3,153.9,1262.4,153.9,1262.7z"/>
	</g>
</g>
<g class="st10">
	<g class="st11">
		<path class="st9" d="M131.5,478.8h9.4c0.8,0,1.5,0.7,1.5,1.5v8.6c0,0.8,0.7,1.5,1.5,1.5h13.6c0.8,0,1.5-0.7,1.5-1.5v-8.6
			c0-0.8,0.7-1.5,1.5-1.5h9.4c0.8,0,1.5-0.7,1.5-1.5v-13.6c0-0.8-0.7-1.5-1.5-1.5h-9.4c-0.8,0-1.5-0.7-1.5-1.5V452
			c0-0.8-0.7-1.5-1.5-1.5h-13.6c-0.8,0-1.5,0.7-1.5,1.5v8.6c0,0.8-0.7,1.5-1.5,1.5h-9.4c-0.8,0-1.5,0.7-1.5,1.5v13.6
			C129.9,478.1,130.6,478.8,131.5,478.8z"/>
	</g>
	<circle class="st12" cx="163.6" cy="470.3" r="5.4"/>
	<g class="st11">
		<path d="M164.9,468.9v2.6h-2.6v-2.6H164.9 M165.9,467.9h-4.6v4.6h4.6V467.9L165.9,467.9z"/>
	</g>
	<circle class="st12" cx="137.7" cy="470.6" r="5.4"/>
	<g class="st11">
		<path d="M137.7,468.8c1,0,1.9,0.8,1.9,1.9s-0.8,1.9-1.9,1.9s-1.9-0.8-1.9-1.9S136.7,468.8,137.7,468.8 M137.7,467.8
			c-1.6,0-2.9,1.3-2.9,2.9s1.3,2.9,2.9,2.9c1.6,0,2.9-1.3,2.9-2.9C140.6,469,139.3,467.8,137.7,467.8L137.7,467.8z"/>
	</g>
	<circle class="st12" cx="150.7" cy="482.4" r="5.4"/>
	<g class="st11">
		<path d="M151.8,481.6l-1.1,1.9l-1.1-1.9H151.8 M153.5,480.6h-5.8l2.9,4.8L153.5,480.6L153.5,480.6z"/>
	</g>
	<circle class="st12" cx="150.7" cy="458.5" r="5.4"/>
	<g class="st11">
		<line class="st5" x1="152.6" y1="460.4" x2="148.7" y2="456.6"/>
	</g>
	<g class="st11">
		<line class="st5" x1="152.6" y1="456.6" x2="148.7" y2="460.4"/>
	</g>
</g>
<g>
	<path class="st8" d="M160.8,329.2c0.6-1.1,0.8-2.5,0.7-3.7c-0.1-1.6-0.6-3.1-1.5-4.4c-0.5-1.8-1.4-3.5-2.9-5
		c-2.7-2.9-6.4-5.3-10.5-4.9c-2,0.2-3.8,0.9-5.5,1.9c0.1-0.3,0.1-0.5,0.1-0.8c0-1.2-0.7-2.3-1.7-2.9c0,0-0.1,0-0.1-0.1
		c-0.6-1-2-1.5-3.1-1.2c-1,0.3-1.8,0.9-2.2,1.8c-0.8,1.9,0.6,4.1,2.2,5c0.6,0.3,1.2,0.5,1.8,0.5c-0.8,0.8-1.4,1.7-2,2.7
		c-0.4,0.7-0.7,1.3-0.9,2.1c-0.9,0.9-1.5,2.1-1.3,3.4c0.5,4.2,2,8,5.2,10.9c1.2,1.1,2.6,1.7,4,2.1c3.5,1.7,8,1,11.3-1.2
		c0.6-0.4,1.2-0.9,1.7-1.3c1.5,1.6,4.1,2.2,5.3-0.1C162.3,332.3,161.8,330.6,160.8,329.2z"/>
	<path class="st13" d="M146.8,337.7c-2.5-0.3-4.9-1.2-6.9-2.7c-0.4-0.3-0.8-0.6-1.2-0.9c-3.4-2.8-5.2-7.3-4.6-11.5
		c0.1-0.6,0.2-1.2,0.4-1.8c0.7-1.6,1.6-3.1,2.8-4.5c0.4-0.5,0.8-0.9,1.2-1.3c4.2-4.2,11.6-5,16.3-0.8c0.4,0.3,0.7,0.6,1.1,0.9
		c1,1,2,2,2.8,3.2c0.5,0.7,1,1.4,1.2,2.1c0.5,1.4,1,2.9,1.1,4.4c0,0.5,0,1.1,0,1.6c0,0.6-0.5,1.8-0.6,2.4"/>
	<path class="st13" d="M153.1,331.3c2.9,1.9,2.7,4.1,5.4,3.8c1.8-0.1,3.5-1.8,3.1-3.8c-0.6-2.3-2.5-3.5-4.5-4.7"/>
	<path class="st13" d="M155,322.3c-3.2-0.4-5.5-3.5-6.3-6.4"/>
	<path class="st13" d="M134.1,327.8c-1.4,2.1-2.4,4.4-2.9,6.9"/>
	<path class="st13" d="M134.4,327.7c-2.5-0.9-5.3-3.3-5.6-5.3"/>
	<path class="st13" d="M138.2,315.2c-3-0.5-6.1-3.6-2.8-6.2c2.8-2.3,6.3,1,6.1,4.1"/>
	<path class="st13" d="M134.1,327.7c-2.1,0-4.1,0-6.2-0.4c-0.7-0.1-1.5-0.3-2.1-0.6"/>
	<ellipse transform="matrix(0.7071 -0.7071 0.7071 0.7071 -192.1378 205.6683)" cx="152.2" cy="334.8" rx="1.2" ry="1"/>
	<ellipse transform="matrix(0.7071 -0.7071 0.7071 0.7071 -188.4447 197.4262)" cx="144.1" cy="326.2" rx="1.3" ry="1"/>
</g>
<g>
	<path class="st9" d="M142.9,774l20.6-38.3c0.6-1.1,0.3-2.5-0.8-3c-1.1-0.6-2.5-0.2-3.1,0.8l-20.7,38.4c-0.3,0.6-0.4,1.3,0,1.9
		c0.1,0.3,0.1,0.5,0,0.7l-0.4,0.8c-0.1,0.2-0.3,0.3-0.5,0.4c-0.4,0.1-0.8,0.5-1.3,1.3c-0.9,1.8-1,3.5-0.1,4c0.9,0.5,2.3-0.6,3.3-2.3
		c0.5-0.9,0.5-1.4,0.4-1.8c-0.1-0.2,0-0.4,0.1-0.6l0.4-0.8c0.1-0.3,0.3-0.4,0.5-0.4C141.9,775,142.6,774.6,142.9,774z"/>
	<polygon points="148.8,753.9 150.2,760.6 153.4,754.5 152,747.8 	"/>
	<path class="st9" d="M156,773.4l-8.8-42.6c-0.2-1.2-1.3-2.1-2.5-1.8s-2.1,1.4-1.8,2.6l8.8,42.7c0.1,0.7,0.6,1.2,1.2,1.5
		c0.2,0.2,0.4,0.3,0.4,0.5l0.2,0.9c0,0.2,0,0.4-0.1,0.6c-0.2,0.4-0.3,0.9-0.1,1.9c0.4,2,1.5,3.4,2.5,3.2c1-0.2,1.4-1.9,1-3.9
		c-0.2-1-0.5-1.4-0.9-1.7c-0.2-0.1-0.3-0.3-0.3-0.5l-0.2-0.9c-0.1-0.3,0-0.5,0.2-0.6C155.9,774.9,156.1,774.1,156,773.4z"/>
</g>
<g>
	<g>
		<path class="st8" d="M120.3,156.3c-5.1,0-9.2-4.1-9.2-9.2v-22.7c0-2.3,1.9-4.2,4.2-4.2h70.2c2.3,0,4.2,1.9,4.2,4.2v22.7
			c0,5.1-4.1,9.2-9.2,9.2H120.3z"/>
		<path d="M185.6,120.7c2.1,0,3.7,1.7,3.7,3.7v22.7c0,4.8-3.9,8.7-8.7,8.7h-60.3c-4.8,0-8.7-3.9-8.7-8.7v-22.7
			c0-2.1,1.7-3.7,3.7-3.7H185.6 M185.6,119.7h-70.2c-2.6,0-4.7,2.1-4.7,4.7v22.7c0,5.3,4.3,9.7,9.7,9.7h60.3c5.3,0,9.7-4.3,9.7-9.7
			v-22.7C190.3,121.8,188.2,119.7,185.6,119.7L185.6,119.7z"/>
	</g>
	<g>
		<g>
			<rect x="116.8" y="121.9" class="st8" width="67.3" height="13.3"/>
			<path d="M183.6,122.4v12.3h-66.3v-12.3H183.6 M184.6,121.4h-68.3v14.3h68.3V121.4L184.6,121.4z"/>
		</g>
		<g>
			<rect x="180.2" y="127.1" width="1.8" height="8.7"/>
		</g>
		<g>
			<rect x="176.5" y="127.1" width="1.8" height="8.7"/>
		</g>
		<g>
			<rect x="173" y="127.1" width="1.8" height="8.7"/>
		</g>
		<g>
			<rect x="165.7" y="127.1" width="1.8" height="8.7"/>
		</g>
		<g>
			<rect x="162.2" y="127.1" width="1.8" height="8.7"/>
		</g>
		<g>
			<rect x="154.9" y="127.1" width="1.8" height="8.7"/>
		</g>
		<g>
			<rect x="151.4" y="127.1" width="1.8" height="8.7"/>
		</g>
		<g>
			<rect x="147.8" y="127.1" width="1.8" height="8.7"/>
		</g>
		<g>
			<rect x="140.6" y="127.1" width="1.8" height="8.7"/>
		</g>
		<g>
			<rect x="137" y="127.1" width="1.8" height="8.7"/>
		</g>
		<g>
			<rect x="129.8" y="127.1" width="1.8" height="8.7"/>
		</g>
		<g>
			<rect x="126.2" y="127.1" width="1.8" height="8.7"/>
		</g>
		<g>
			<rect x="122.6" y="127.1" width="1.8" height="8.7"/>
		</g>
		<g>
			<line class="st5" x1="181.1" y1="135.7" x2="181.1" y2="121.4"/>
		</g>
		<g>
			<line class="st5" x1="177.5" y1="135.7" x2="177.5" y2="121.4"/>
		</g>
		<g>
			<line class="st5" x1="173.9" y1="135.7" x2="173.9" y2="121.4"/>
		</g>
		<g>
			<line class="st5" x1="170.3" y1="135.7" x2="170.3" y2="121.4"/>
		</g>
		<g>
			<line class="st5" x1="166.7" y1="135.7" x2="166.7" y2="121.4"/>
		</g>
		<g>
			<line class="st5" x1="163.1" y1="135.7" x2="163.1" y2="121.4"/>
		</g>
		<g>
			<line class="st5" x1="159.5" y1="135.7" x2="159.5" y2="121.4"/>
		</g>
		<g>
			<line class="st5" x1="155.9" y1="135.7" x2="155.9" y2="121.4"/>
		</g>
		<g>
			<line class="st5" x1="152.3" y1="135.7" x2="152.3" y2="121.4"/>
		</g>
		<g>
			<line class="st5" x1="148.7" y1="135.7" x2="148.7" y2="121.4"/>
		</g>
		<g>
			<line class="st5" x1="145.1" y1="135.7" x2="145.1" y2="121.4"/>
		</g>
		<g>
			<line class="st5" x1="141.5" y1="135.7" x2="141.5" y2="121.4"/>
		</g>
		<g>
			<line class="st5" x1="137.9" y1="135.7" x2="137.9" y2="121.4"/>
		</g>
		<g>
			<line class="st5" x1="134.3" y1="135.7" x2="134.3" y2="121.4"/>
		</g>
		<g>
			<line class="st5" x1="130.7" y1="135.7" x2="130.7" y2="121.4"/>
		</g>
		<g>
			<line class="st5" x1="127.1" y1="135.7" x2="127.1" y2="121.4"/>
		</g>
		<g>
			<line class="st5" x1="123.5" y1="135.7" x2="123.5" y2="121.4"/>
		</g>
		<g>
			<line class="st5" x1="119.9" y1="135.7" x2="119.9" y2="121.4"/>
		</g>
	</g>
	<g>
		<circle class="st8" cx="141.9" cy="142.4" r="1.3"/>
		<path d="M141.9,141.6c0.4,0,0.8,0.3,0.8,0.8s-0.3,0.8-0.8,0.8s-0.8-0.3-0.8-0.8S141.5,141.6,141.9,141.6 M141.9,140.6
			c-1,0-1.8,0.8-1.8,1.8c0,1,0.8,1.8,1.8,1.8c1,0,1.8-0.8,1.8-1.8C143.7,141.4,142.9,140.6,141.9,140.6L141.9,140.6z"/>
	</g>
	<g>
		<circle class="st8" cx="167.8" cy="140.1" r="0.4"/>
		<path d="M167.8,139.1c-0.5,0-0.9,0.4-0.9,0.9c0,0.5,0.4,0.9,0.9,0.9s0.9-0.4,0.9-0.9C168.8,139.5,168.3,139.1,167.8,139.1
			L167.8,139.1z"/>
	</g>
	<g>
		<circle class="st8" cx="163.7" cy="140.1" r="0.4"/>
		<path d="M163.7,139.1c-0.5,0-0.9,0.4-0.9,0.9c0,0.5,0.4,0.9,0.9,0.9c0.5,0,0.9-0.4,0.9-0.9C164.6,139.5,164.2,139.1,163.7,139.1
			L163.7,139.1z"/>
	</g>
	<g>
		<circle class="st8" cx="159.5" cy="140.1" r="0.4"/>
		<path d="M159.5,139.1c-0.5,0-0.9,0.4-0.9,0.9c0,0.5,0.4,0.9,0.9,0.9c0.5,0,0.9-0.4,0.9-0.9C160.4,139.5,160,139.1,159.5,139.1
			L159.5,139.1z"/>
	</g>
	<g>
		<circle class="st8" cx="155.3" cy="140.1" r="0.4"/>
		<path d="M155.3,139.1c-0.5,0-0.9,0.4-0.9,0.9c0,0.5,0.4,0.9,0.9,0.9c0.5,0,0.9-0.4,0.9-0.9C156.2,139.5,155.8,139.1,155.3,139.1
			L155.3,139.1z"/>
	</g>
	<g>
		<circle class="st8" cx="151.1" cy="140.1" r="0.4"/>
		<path d="M151.1,139.1c-0.5,0-0.9,0.4-0.9,0.9c0,0.5,0.4,0.9,0.9,0.9s0.9-0.4,0.9-0.9C152.1,139.5,151.6,139.1,151.1,139.1
			L151.1,139.1z"/>
	</g>
	<g>
		<circle class="st8" cx="147" cy="140.1" r="0.4"/>
		<path d="M147,139.1c-0.5,0-0.9,0.4-0.9,0.9c0,0.5,0.4,0.9,0.9,0.9c0.5,0,0.9-0.4,0.9-0.9C147.9,139.5,147.5,139.1,147,139.1
			L147,139.1z"/>
	</g>
	<g>
		<g>
			<circle class="st8" cx="137.3" cy="144.6" r="0.1"/>
			<path d="M137.3,143.9c-0.3,0-0.6,0.3-0.6,0.6c0,0.3,0.3,0.6,0.6,0.6s0.6-0.3,0.6-0.6C137.9,144.2,137.6,143.9,137.3,143.9
				L137.3,143.9z"/>
		</g>
		<g>
			<circle class="st8" cx="134.6" cy="144.6" r="0.1"/>
			<path d="M134.6,143.9c-0.3,0-0.6,0.3-0.6,0.6c0,0.3,0.3,0.6,0.6,0.6c0.3,0,0.6-0.3,0.6-0.6C135.2,144.2,134.9,143.9,134.6,143.9
				L134.6,143.9z"/>
		</g>
		<g>
			<circle class="st8" cx="131.8" cy="144.6" r="0.1"/>
			<path d="M131.8,143.9c-0.3,0-0.6,0.3-0.6,0.6c0,0.3,0.3,0.6,0.6,0.6c0.3,0,0.6-0.3,0.6-0.6C132.5,144.2,132.2,143.9,131.8,143.9
				L131.8,143.9z"/>
		</g>
		<g>
			<circle class="st8" cx="137.3" cy="142.2" r="0.1"/>
			<path d="M137.3,141.5c-0.3,0-0.6,0.3-0.6,0.6c0,0.3,0.3,0.6,0.6,0.6s0.6-0.3,0.6-0.6C137.9,141.8,137.6,141.5,137.3,141.5
				L137.3,141.5z"/>
		</g>
		<g>
			<circle class="st8" cx="134.6" cy="142.2" r="0.1"/>
			<path d="M134.6,141.5c-0.3,0-0.6,0.3-0.6,0.6c0,0.3,0.3,0.6,0.6,0.6c0.3,0,0.6-0.3,0.6-0.6C135.2,141.8,134.9,141.5,134.6,141.5
				L134.6,141.5z"/>
		</g>
		<g>
			<circle class="st8" cx="131.8" cy="142.2" r="0.1"/>
			<path d="M131.8,141.5c-0.3,0-0.6,0.3-0.6,0.6c0,0.3,0.3,0.6,0.6,0.6c0.3,0,0.6-0.3,0.6-0.6C132.5,141.8,132.2,141.5,131.8,141.5
				L131.8,141.5z"/>
		</g>
		<g>
			<circle class="st8" cx="137.3" cy="139.8" r="0.1"/>
			<path d="M137.3,139.1c-0.3,0-0.6,0.3-0.6,0.6c0,0.3,0.3,0.6,0.6,0.6s0.6-0.3,0.6-0.6C137.9,139.4,137.6,139.1,137.3,139.1
				L137.3,139.1z"/>
		</g>
		<g>
			<circle class="st8" cx="134.6" cy="139.8" r="0.1"/>
			<path d="M134.6,139.1c-0.3,0-0.6,0.3-0.6,0.6c0,0.3,0.3,0.6,0.6,0.6c0.3,0,0.6-0.3,0.6-0.6C135.2,139.4,134.9,139.1,134.6,139.1
				L134.6,139.1z"/>
		</g>
		<g>
			<circle class="st8" cx="131.8" cy="139.8" r="0.1"/>
			<path d="M131.8,139.1c-0.3,0-0.6,0.3-0.6,0.6c0,0.3,0.3,0.6,0.6,0.6c0.3,0,0.6-0.3,0.6-0.6C132.5,139.4,132.2,139.1,131.8,139.1
				L131.8,139.1z"/>
		</g>
	</g>
	<g>
		<line class="st5" x1="169.5" y1="142.4" x2="145.9" y2="142.4"/>
	</g>
	<g>
		<path class="st5" d="M172,153.6h8c4,0,7.2-3.2,7.2-7.2v0c0-4-3.2-7.2-7.2-7.2h-8"/>
		<path class="st5" d="M128.8,139.2h-7.8c-4,0-7.2,3.2-7.2,7.2v0c0,4,3.2,7.2,7.2,7.2h7.8"/>
		<path class="st5" d="M128.8,142.4h-7.6c-2.3,0-4.2,1.9-4.2,4.2l0,0c0,2.3,1.9,4.2,4.2,4.2h7.6"/>
		<path class="st5" d="M128.8,145.2h-7.5c-0.8,0-1.4,0.6-1.4,1.4l0,0c0,0.8,0.6,1.4,1.4,1.4h7.5"/>
		<path class="st5" d="M172.4,142.4h7.6c2.3,0,4.2,1.9,4.2,4.2l0,0c0,2.3-1.9,4.2-4.2,4.2h-7.6"/>
		<path class="st5" d="M172.4,145.2h7.5c0.8,0,1.4,0.6,1.4,1.4l0,0c0,0.8-0.6,1.4-1.4,1.4h-7.5"/>
	</g>
	<g>
		<rect x="131.6" y="148.6" class="st8" width="37.4" height="4.6"/>
		<path d="M168.6,149.1v3.6h-36.4v-3.6H168.6 M169.6,148.1h-38.4v5.6h38.4V148.1L169.6,148.1z"/>
	</g>
	<g>
		<rect x="149.7" y="144.6" class="st8" width="3.9" height="1.8"/>
		<path d="M153,145.1v0.8h-2.9v-0.8H153 M154,144.1h-4.9v2.8h4.9V144.1L154,144.1z"/>
	</g>
	<g>
		<line class="st5" x1="169.5" y1="145.4" x2="167.6" y2="145.4"/>
	</g>
	<line class="st5" x1="163.6" y1="145.6" x2="157.7" y2="145.6"/>
</g>
<circle class="st5" cx="112.8" cy="912.3" r="4.5"/>
</svg>
