<?xml version="1.0" encoding="utf-8"?>
<!-- Generator: Adobe Illustrator 21.0.2, SVG Export Plug-In . SVG Version: 6.00 Build 0)  -->
<svg version="1.1" id="Layer_1" xmlns="http://www.w3.org/2000/svg" xmlns:xlink="http://www.w3.org/1999/xlink" x="0px" y="0px"
	 viewBox="0 0 297 1443.3" style="enable-background:new 0 0 297 1443.3;" xml:space="preserve">
<style type="text/css">
	.st0{fill:#067BC2;}
	.st1{fill:#17BEBB;}
	.st2{fill:#FABC3C;}
	.st3{fill:#FE5F55;}
	.st4{fill:#D33F49;}
	.st5{fill:none;stroke:#000000;stroke-miterlimit:10;}
	.st6{opacity:7.000000e-02;enable-background:new    ;}
	.st7{fill:#1A8420;}
	.st8{display:none;}
	.st9{display:inline;}
	.st10{fill:#FFFFFF;stroke:#000000;stroke-miterlimit:10;}
	.st11{display:inline;fill:#FFFFFF;stroke:#000000;stroke-miterlimit:10;}
	.st12{fill:#FFFFFF;}
	.st13{fill:none;}
</style>
<path class="st0" d="M151.2,960.7L151.2,960.7c3.7,0,6.8,3,6.8,6.8v40.9c0,3.7-3,6.8-6.8,6.8l0,0c-3.7,0-6.8-3-6.8-6.8v-40.9
	C144.4,963.8,147.4,960.7,151.2,960.7z"/>
<path class="st1" d="M151.2,416.8L151.2,416.8c3.7,0,6.8,3,6.8,6.8v29.9c0,3.7-3,6.8-6.8,6.8l0,0c-3.7,0-6.8-3-6.8-6.8v-29.9
	C144.4,419.8,147.4,416.8,151.2,416.8z"/>
<path class="st2" d="M151.2,1172.1L151.2,1172.1c3.7,0,6.8,3,6.8,6.8v62.9c0,3.7-3,6.8-6.8,6.8l0,0c-3.7,0-6.8-3-6.8-6.8v-62.9
	C144.4,1175.1,147.4,1172.1,151.2,1172.1z"/>
<path class="st3" d="M151.2,628.6L151.2,628.6c3.7,0,6.8,3,6.8,6.8v62.9c0,3.7-3,6.8-6.8,6.8l0,0c-3.7,0-6.8-3-6.8-6.8v-62.9
	C144.4,631.6,147.4,628.6,151.2,628.6z"/>
<path class="st4" d="M151.2,242.8L151.2,242.8c3.7,0,6.8,3,6.8,6.8v20c0,3.7-3,6.8-6.8,6.8l0,0c-3.7,0-6.8-3-6.8-6.8v-20
	C144.4,245.8,147.4,242.8,151.2,242.8z"/>
<line class="st5" x1="165.3" y1="635.6" x2="165.3" y2="606.3"/>
<line class="st5" x1="122.4" y1="291" x2="122.4" y2="261.7"/>
<line class="st5" x1="134.1" y1="719.7" x2="134.1" y2="690.3"/>
<line class="st5" x1="174.7" y1="734.4" x2="174.7" y2="684.2"/>
<line class="st5" x1="139.7" y1="1303.9" x2="139.7" y2="1276.7"/>
<line class="st5" x1="153.1" y1="1355.6" x2="153.1" y2="1305.4"/>
<line class="st5" x1="140.6" y1="920.9" x2="140.6" y2="891.5"/>
<line class="st5" x1="160.3" y1="933.7" x2="160.3" y2="904.3"/>
<line class="st5" x1="151.2" y1="334.5" x2="151.2" y2="363.9"/>
<circle class="st6" cx="184.2" cy="780.8" r="15.6"/>
<circle class="st6" cx="124.7" cy="594.2" r="9.3"/>
<circle class="st6" cx="184.2" cy="363.9" r="13.8"/>
<g>
	<circle class="st7" cx="149.5" cy="570.5" r="2.6"/>
	<circle class="st7" cx="149.5" cy="578.2" r="2.6"/>
	<circle class="st7" cx="149.5" cy="586" r="2.6"/>
	<circle class="st7" cx="149.5" cy="593.7" r="2.6"/>
</g>
<g class="st8">
	<g class="st9">
		<path class="st10" d="M131.5,478.8h9.4c0.8,0,1.5,0.7,1.5,1.5v8.6c0,0.8,0.7,1.5,1.5,1.5h13.6c0.8,0,1.5-0.7,1.5-1.5v-8.6
			c0-0.8,0.7-1.5,1.5-1.5h9.4c0.8,0,1.5-0.7,1.5-1.5v-13.6c0-0.8-0.7-1.5-1.5-1.5h-9.4c-0.8,0-1.5-0.7-1.5-1.5V452
			c0-0.8-0.7-1.5-1.5-1.5h-13.6c-0.8,0-1.5,0.7-1.5,1.5v8.6c0,0.8-0.7,1.5-1.5,1.5h-9.4c-0.8,0-1.5,0.7-1.5,1.5v13.6
			C129.9,478.1,130.6,478.8,131.5,478.8z"/>
	</g>
	<circle class="st11" cx="163.6" cy="470.3" r="5.4"/>
	<g class="st9">
		<path d="M164.9,468.9v2.6h-2.6v-2.6H164.9 M165.9,467.9h-4.6v4.6h4.6V467.9L165.9,467.9z"/>
	</g>
	<circle class="st11" cx="137.7" cy="470.6" r="5.4"/>
	<g class="st9">
		<path d="M137.7,468.8c1,0,1.9,0.8,1.9,1.9s-0.8,1.9-1.9,1.9s-1.9-0.8-1.9-1.9S136.7,468.8,137.7,468.8 M137.7,467.8
			c-1.6,0-2.9,1.3-2.9,2.9s1.3,2.9,2.9,2.9c1.6,0,2.9-1.3,2.9-2.9C140.6,469,139.3,467.8,137.7,467.8L137.7,467.8z"/>
	</g>
	<circle class="st11" cx="150.7" cy="482.4" r="5.4"/>
	<g class="st9">
		<path d="M151.8,481.6l-1.1,1.9l-1.1-1.9H151.8 M153.5,480.6h-5.8l2.9,4.8L153.5,480.6L153.5,480.6z"/>
	</g>
	<circle class="st11" cx="150.7" cy="458.5" r="5.4"/>
	<g class="st9">
		<line class="st5" x1="152.6" y1="460.4" x2="148.7" y2="456.6"/>
	</g>
	<g class="st9">
		<line class="st5" x1="152.6" y1="456.6" x2="148.7" y2="460.4"/>
	</g>
</g>
<g>
	<g>
		
			<rect x="135.7" y="807.1" transform="matrix(0.7071 -0.7071 0.7071 0.7071 -531.6666 343.1508)" class="st12" width="25.4" height="12.6"/>
		<path d="M152.9,800.7l8.2,8.2l-17.2,17.2l-8.2-8.2L152.9,800.7 M152.9,799.2L134.2,818l9.6,9.6l18.7-18.7L152.9,799.2L152.9,799.2
			z"/>
	</g>
	<g>
		<path class="st12" d="M130.5,819.2c-0.6-0.7-0.6-1.6-0.2-2.2l1.1-1.5c0.1-0.1,0.2-0.2,0.3-0.3l1.5-1.1c0.2-0.2,0.5-0.3,0.9-0.3
			s0.9,0.2,1.3,0.5l1.5,1.3l-5.1,5.1L130.5,819.2z"/>
		<path d="M134,814.5L134,814.5c0.3,0,0.7,0.1,1,0.4l1.1,0.9l-4.3,4.3l-0.9-1.1c-0.4-0.5-0.5-1.1-0.2-1.5l1.1-1.5
			c0-0.1,0.1-0.1,0.2-0.2l1.5-1.1C133.6,814.5,133.8,814.5,134,814.5 M134,813.5c-0.4,0-0.8,0.1-1.2,0.4l-1.5,1.1
			c-0.1,0.1-0.3,0.2-0.4,0.4l-1.1,1.5c-0.6,0.8-0.5,1.9,0.2,2.8l1.6,2l5.9-5.9l-2-1.6C135.1,813.7,134.5,813.5,134,813.5L134,813.5z
			"/>
	</g>
	<g>
		<path class="st12" d="M149.1,800.5c-0.6-0.7-0.6-1.6-0.2-2.2l1.1-1.5c0.1-0.1,0.2-0.2,0.3-0.3l1.5-1.1c0.2-0.2,0.5-0.3,0.9-0.3
			s0.9,0.2,1.3,0.5l1.5,1.3l-5.1,5.1L149.1,800.5z"/>
		<path d="M152.6,795.8L152.6,795.8c0.3,0,0.7,0.1,1,0.4l1.1,0.9l-4.3,4.3l-0.9-1.1c-0.4-0.5-0.5-1.1-0.2-1.5l1.1-1.5
			c0-0.1,0.1-0.1,0.2-0.2l1.5-1.1C152.2,795.8,152.5,795.8,152.6,795.8 M152.6,794.8c-0.4,0-0.8,0.1-1.2,0.4l-1.5,1.1
			c-0.1,0.1-0.3,0.2-0.4,0.4l-1.1,1.5c-0.6,0.8-0.5,1.9,0.2,2.8l1.6,2l5.9-5.9l-2-1.6C153.7,795,153.2,794.8,152.6,794.8
			L152.6,794.8z"/>
	</g>
	<g>
		<path class="st12" d="M143.1,837.7c-1.3,0-2.6-0.7-3.4-1.8l-6.9-9.6l12.2-5.2l2.2,11.6c0.4,1.9-0.7,3.9-2.5,4.6
			C144.1,837.5,143.6,837.7,143.1,837.7z"/>
		<path d="M144.6,821.8l2.1,11c0.3,1.7-0.6,3.4-2.2,4.1c-0.4,0.2-0.9,0.3-1.4,0.3c-1.2,0-2.3-0.6-3-1.5l-6.5-9.1L144.6,821.8
			 M145.4,820.3L132,826l7.3,10.1c0.9,1.3,2.3,2,3.8,2c0.6,0,1.2-0.1,1.8-0.3l0,0c2.1-0.8,3.2-3,2.8-5.2L145.4,820.3L145.4,820.3z"
			/>
	</g>
	<g>
		<path class="st12" d="M138.1,829c-1.8,0-3.4-0.7-4.7-1.9c-1.2-1.2-1.9-2.9-1.9-4.7s0.7-3.4,1.9-4.7c1.2-1.2,2.9-1.9,4.7-1.9
			s3.4,0.7,4.7,1.9c0.4,0.4,0.8,0.9,1.1,1.4l0.3,0.6l0.5-0.4c0.8-0.7,1.8-1.1,2.9-1.1c1.1,0,2.2,0.4,3,1.2s1.2,1.8,1.2,3
			c0,1.1-0.4,2.2-1.2,3s-1.8,1.2-3,1.2l0,0c-1.1,0-2.1-0.4-2.8-1.1l-0.5-0.4l-0.3,0.6c-0.3,0.6-0.7,1.1-1.1,1.5
			C141.5,828.3,139.8,829,138.1,829z"/>
		<path d="M138.1,816.3c1.6,0,3.2,0.6,4.3,1.8c0.4,0.4,0.7,0.8,1,1.3l0.6,1.1l0.9-0.9c0.7-0.7,1.6-1,2.5-1c1,0,1.9,0.4,2.6,1.1
			c1.4,1.4,1.4,3.8,0,5.2c-0.7,0.7-1.6,1.1-2.6,1.1c-0.9,0-1.8-0.3-2.5-1l-0.9-0.9l-0.6,1.1c-0.3,0.5-0.6,1-1,1.4
			c-1.2,1.2-2.7,1.8-4.3,1.8s-3.2-0.6-4.3-1.8s-1.8-2.7-1.8-4.3s0.6-3.2,1.8-4.3S136.4,816.3,138.1,816.3 M138.1,815.3
			c-1.8,0-3.6,0.7-5,2.1c-2.8,2.8-2.8,7.3,0,10c1.4,1.4,3.2,2.1,5,2.1s3.6-0.7,5-2.1c0.5-0.5,0.9-1,1.2-1.6c0.9,0.8,2,1.2,3.2,1.2
			s2.4-0.5,3.3-1.4c1.8-1.8,1.8-4.8,0-6.6c-0.9-0.9-2.1-1.4-3.3-1.4s-2.3,0.4-3.2,1.3c-0.3-0.5-0.7-1.1-1.2-1.5
			C141.7,816,139.9,815.3,138.1,815.3L138.1,815.3z"/>
	</g>
	<g>
		<path class="st12" d="M168.1,812.5c-0.3,0-0.5,0-0.8-0.1l-11.6-2.2l5.2-12.2l9.6,6.9c1.6,1.1,2.2,3.2,1.4,5
			C171.3,811.5,169.8,812.5,168.1,812.5L168.1,812.5z"/>
		<path d="M161.1,798.8l9.1,6.5c1.4,1,1.9,2.8,1.3,4.4c-0.6,1.4-1.9,2.3-3.4,2.3c-0.2,0-0.5,0-0.7-0.1l-11-2.1L161.1,798.8
			 M160.6,797.3l-5.6,13.4l12.2,2.3c0.3,0.1,0.6,0.1,0.9,0.1c1.9,0,3.6-1.1,4.3-2.9l0,0c0.8-2,0.2-4.3-1.6-5.6L160.6,797.3
			L160.6,797.3z"/>
	</g>
	<g>
		<path class="st12" d="M157,817c-1.1,0-2.2-0.4-3-1.2c-1.6-1.6-1.7-4.2-0.1-5.9l0.4-0.5l-0.6-0.3c-0.5-0.3-1-0.7-1.4-1.1
			c-2.6-2.6-2.6-6.8,0-9.3c1.2-1.2,2.9-1.9,4.7-1.9s3.4,0.7,4.7,1.9c2.6,2.6,2.6,6.8,0,9.3c-0.4,0.4-1,0.8-1.5,1.1l-0.6,0.3l0.4,0.5
			c1.5,1.7,1.5,4.2-0.1,5.8C159.1,816.7,158.1,817,157,817z"/>
		<path d="M157,797.3c1.6,0,3.2,0.6,4.3,1.8s1.8,2.7,1.8,4.3s-0.6,3.2-1.8,4.3c-0.4,0.4-0.9,0.8-1.4,1l-1.1,0.6l0.9,0.9
			c1.3,1.5,1.3,3.7-0.1,5.1c-0.7,0.7-1.6,1.1-2.6,1.1s-1.9-0.4-2.6-1.1c-1.4-1.4-1.5-3.7-0.1-5.2l0.9-0.9l-1.2-0.5
			c-0.5-0.3-0.9-0.6-1.3-1c-1.2-1.2-1.8-2.7-1.8-4.3s0.6-3.2,1.8-4.3S155.4,797.3,157,797.3 M157,796.3c-1.8,0-3.6,0.7-5,2.1
			c-2.8,2.8-2.8,7.3,0,10c0.5,0.5,1,0.9,1.5,1.2c-1.7,1.8-1.7,4.7,0.1,6.5c0.9,0.9,2.1,1.4,3.3,1.4s2.4-0.5,3.3-1.4
			c1.8-1.8,1.8-4.6,0.1-6.5c0.6-0.3,1.1-0.7,1.6-1.2c2.8-2.8,2.8-7.3,0-10C160.7,797,158.9,796.3,157,796.3L157,796.3z"/>
	</g>
	<g>
		<path class="st12" d="M147.6,824.8c-0.6,0-1.2-0.3-1.7-0.7s-0.7-1.1-0.7-1.7s0.2-1.2,0.7-1.7s1.1-0.7,1.7-0.7l0,0
			c0.6,0,1.2,0.3,1.7,0.7c0.9,0.9,0.9,2.5,0,3.4C148.8,824.5,148.2,824.8,147.6,824.8z"/>
		<path d="M147.6,820.5c0.5,0,1,0.2,1.3,0.6c0.7,0.7,0.7,2,0,2.7c-0.4,0.4-0.8,0.6-1.3,0.6s-1-0.2-1.3-0.6s-0.6-0.8-0.6-1.3
			s0.2-1,0.6-1.3S147.1,820.5,147.6,820.5 M147.6,819.5c-0.7,0-1.5,0.3-2.1,0.9c-1.1,1.1-1.1,3,0,4.1c0.6,0.6,1.3,0.9,2.1,0.9
			s1.5-0.3,2.1-0.9c1.1-1.1,1.1-3,0-4.1C149.1,819.8,148.3,819.5,147.6,819.5L147.6,819.5z"/>
	</g>
	<g>
		<path class="st12" d="M157,815.2c-0.6,0-1.2-0.3-1.7-0.7c-0.5-0.5-0.7-1.1-0.7-1.7s0.2-1.2,0.7-1.7s1.1-0.7,1.7-0.7
			c0.6,0,1.2,0.2,1.7,0.7s0.7,1.1,0.7,1.7s-0.2,1.2-0.7,1.7C158.3,815,157.7,815.2,157,815.2z"/>
		<path d="M157,811c0.5,0,1,0.2,1.3,0.6s0.6,0.8,0.6,1.3s-0.2,1-0.6,1.3c-0.4,0.4-0.8,0.6-1.3,0.6s-1-0.2-1.3-0.6s-0.6-0.8-0.6-1.3
			s0.2-1,0.6-1.3S156.5,811,157,811 M157,810c-0.7,0-1.5,0.3-2.1,0.9c-1.1,1.1-1.1,3,0,4.1c0.6,0.6,1.3,0.9,2.1,0.9
			c0.7,0,1.5-0.3,2.1-0.9c1.1-1.1,1.1-3,0-4.1C158.5,810.2,157.8,810,157,810L157,810z"/>
	</g>
	<g>
		<g>
			<path class="st12" d="M159.3,798.2l-1.9,1.9c-0.2,0.2-0.4,0.2-0.6,0l-1.8-1.8c-0.2-0.2-0.4-0.2-0.6,0l-2.4,2.4
				c-0.2,0.2-0.2,0.4,0,0.6l1.8,1.8c0.2,0.2,0.2,0.4,0,0.6l-1.9,1.9c-0.2,0.2-0.2,0.4,0,0.6l2.4,2.4c0.2,0.2,0.4,0.2,0.6,0l1.9-1.9
				c0.2-0.2,0.4-0.2,0.6,0l1.8,1.8c0.2,0.2,0.4,0.2,0.6,0l2.4-2.4c0.2-0.2,0.2-0.4,0-0.6l-1.8-1.8c-0.2-0.2-0.2-0.4,0-0.6l1.9-1.9
				c0.2-0.2,0.2-0.4,0-0.6l-2.4-2.4C159.8,798,159.5,798,159.3,798.2z"/>
		</g>
		
			<ellipse transform="matrix(0.7071 -0.7071 0.7071 0.7071 -524.7157 345.3029)" class="st10" cx="154.5" cy="806" rx="1.5" ry="1.5"/>
		<g>
			
				<rect x="153.9" y="805.4" transform="matrix(0.7071 -0.7071 0.7071 0.7071 -524.7158 345.3029)" class="st13" width="1.2" height="1.2"/>
		</g>
		
			<ellipse transform="matrix(0.7071 -0.7071 0.7071 0.7071 -519.421 347.4673)" class="st10" cx="159.7" cy="800.7" rx="1.5" ry="1.5"/>
		<g>
			
				<ellipse transform="matrix(0.7071 -0.7071 0.7071 0.7071 -519.421 347.4673)" class="st13" cx="159.7" cy="800.7" rx="0.7" ry="0.7"/>
		</g>
		
			<ellipse transform="matrix(0.7071 -0.7071 0.7071 0.7071 -521.0878 343.9204)" class="st10" cx="154.6" cy="801" rx="1.5" ry="1.5"/>
		<g>
			<polygon class="st13" points="155.5,800.8 154.4,801.8 154.1,800.3 			"/>
		</g>
		
			<ellipse transform="matrix(0.7071 -0.7071 0.7071 0.7071 -523.1196 348.8203)" class="st10" cx="159.5" cy="805.9" rx="1.5" ry="1.5"/>
		<g>
			<g>
				<line class="st13" x1="158.8" y1="805.8" x2="160.2" y2="805.8"/>
			</g>
			<g>
				<line class="st13" x1="159.5" y1="806.5" x2="159.5" y2="805.2"/>
			</g>
		</g>
	</g>
	<g>
		<g>
			<path class="st13" d="M140.1,817.3l-1.9,1.9c-0.2,0.2-0.4,0.2-0.6,0l-1.8-1.8c-0.2-0.2-0.4-0.2-0.6,0l-2.4,2.4
				c-0.2,0.2-0.2,0.4,0,0.6l1.8,1.8c0.2,0.2,0.2,0.4,0,0.6l-1.9,1.9c-0.2,0.2-0.2,0.4,0,0.6l2.4,2.4c0.2,0.2,0.4,0.2,0.6,0l1.9-1.9
				c0.2-0.2,0.4-0.2,0.6,0l1.8,1.8c0.2,0.2,0.4,0.2,0.6,0l2.4-2.4c0.2-0.2,0.2-0.4,0-0.6l-1.8-1.8c-0.2-0.2-0.2-0.4,0-0.6l1.9-1.9
				c0.2-0.2,0.2-0.4,0-0.6l-2.4-2.4C140.5,817.2,140.3,817.2,140.1,817.3z"/>
		</g>
		<g>
			<path class="st5" d="M137.3,821v0.7c0,0.2-0.2,0.4-0.5,0.5h-0.7c-0.1,0-0.3,0-0.4-0.1l-0.9-0.9c-0.1-0.1-0.1-0.3,0-0.5l0.9-0.9
				c0.1-0.1,0.3-0.1,0.5,0l0.9,0.9C137.3,820.7,137.4,820.8,137.3,821z"/>
			<path class="st5" d="M138.4,824.5v-0.7c0-0.2,0.2-0.4,0.5-0.5h0.7c0.1,0,0.3,0,0.4,0.1l0.9,0.9c0.1,0.1,0.1,0.3,0,0.5l-0.9,0.9
				c-0.1,0.1-0.3,0.1-0.5,0l-0.9-0.9C138.4,824.7,138.4,824.5,138.4,824.5z"/>
		</g>
		<g>
			<path class="st5" d="M136.2,823.2h0.7c0.2,0,0.4,0.2,0.5,0.5v0.7c0,0.1,0,0.3-0.1,0.4l-0.9,0.9c-0.1,0.1-0.3,0.1-0.5,0l-0.9-0.9
				c-0.1-0.1-0.1-0.3,0-0.5l0.9-0.9C135.9,823.2,136,823.2,136.2,823.2z"/>
			<path class="st5" d="M139.6,822.2h-0.7c-0.2,0-0.4-0.2-0.5-0.5V821c0-0.1,0-0.3,0.1-0.4l0.9-0.9c0.1-0.1,0.3-0.1,0.5,0l0.9,0.9
				c0.1,0.1,0.1,0.3,0,0.5l-0.9,0.9C139.9,822.2,139.7,822.2,139.6,822.2z"/>
		</g>
	</g>
</g>
<g>
	<polygon class="st10" points="154.1,164.1 149.5,175.6 144.9,164.1 149.5,158.9 	"/>
	<path class="st10" d="M154.1,163.6l-0.3-0.1c-0.9-0.4-1.4-0.4-2.3,0.1l-0.2,0.1l-0.3-0.1c-0.9-0.4-2-0.4-2.9,0l-0.3,0.1l-0.4-0.2
		c-1-0.4-1.4-0.4-2.3,0.1l-0.1,0v-54.2l2.6-1.2h3.7l2.8,1.2V163.6z"/>
	<line class="st5" x1="151.2" y1="108.4" x2="151.2" y2="163.8"/>
	<line class="st5" x1="147.8" y1="163.8" x2="147.8" y2="108.4"/>
	<g>
		<path d="M151.5,170.5l-0.9-0.3c-0.7-0.2-1.5-0.2-2.2,0l-0.9,0.3l2,5.1L151.5,170.5z"/>
	</g>
</g>
<g>
	<path class="st10" d="M152.1,1129.7L152.1,1129.7c6.7,0,12.1-5.4,12.1-12.1v-31.8h-24.3v31.8
		C139.9,1124.3,145.4,1129.7,152.1,1129.7z"/>
	<line class="st10" x1="164.2" y1="1113.5" x2="140" y2="1113.5"/>
	<line class="st10" x1="158.9" y1="1110.3" x2="145.2" y2="1110.3"/>
	<line class="st10" x1="158.8" y1="1107.8" x2="145.1" y2="1107.8"/>
	<line class="st10" x1="164.2" y1="1115.5" x2="139.9" y2="1115.5"/>
	<line class="st10" x1="158.8" y1="1105.2" x2="145.1" y2="1105.2"/>
	
		<rect x="149.8" y="1094.4" transform="matrix(-1 -1.224647e-16 1.224647e-16 -1 304.3669 2196.7251)" class="st10" width="4.8" height="8"/>
	
		<rect x="158.9" y="1088" transform="matrix(-1 -1.224647e-16 1.224647e-16 -1 320.8467 2180.1565)" class="st10" width="3" height="4.1"/>
	<line class="st10" x1="160.6" y1="1099.9" x2="158.9" y2="1099.9"/>
	<line class="st10" x1="160.6" y1="1098.1" x2="158.9" y2="1098.1"/>
	<line class="st10" x1="160.6" y1="1096.2" x2="158.9" y2="1096.2"/>
	<line class="st10" x1="160.6" y1="1094.4" x2="158.9" y2="1094.4"/>
	<circle class="st10" cx="152.1" cy="1089.8" r="1.8"/>
	
		<rect x="148.3" y="1117.4" transform="matrix(-1 -1.224647e-16 1.224647e-16 -1 303.9756 2235.6226)" class="st10" width="7.4" height="0.9"/>
	<g>
		<path class="st10" d="M140.2,1120.1h2.7v-2.6h-3v0.1C139.9,1118.5,140,1119.3,140.2,1120.1z"/>
		<path class="st10" d="M158.5,1120.1h5.4c0.2-0.8,0.3-1.6,0.3-2.5v-0.1h-5.7V1120.1z"/>
		<path class="st10" d="M153.1,1129.7c2.4-0.2,4.5-1.1,6.3-2.4h-6.3V1129.7z"/>
		<path class="st10" d="M144.7,1127.3c1.8,1.4,4,2.3,6.4,2.4v-2.4H144.7z"/>
	</g>
	<circle cx="145.7" cy="1118.8" r="1"/>
	<polygon class="st10" points="149.2,1125.3 154.9,1125.3 155.7,1120.1 148.4,1120.1 	"/>
	<circle cx="152.1" cy="1122.8" r="1.3"/>
	
		<rect x="165.6" y="1088.4" transform="matrix(-1 -1.224647e-16 1.224647e-16 -1 336.711 2189.1931)" class="st10" width="5.5" height="12.4"/>
	<path class="st10" d="M165.6,1100h6v10.3c0,1.7-1.4,3.2-3.2,3.2h-2.8V1100z"/>
	
		<rect x="166" y="1079.5" transform="matrix(-1 -1.224647e-16 1.224647e-16 -1 337.1022 2161.5439)" class="st10" width="5.1" height="2.5"/>
	
		<rect x="165.6" y="1081.2" transform="matrix(-1 -1.224647e-16 1.224647e-16 -1 337.2327 2170.1519)" class="st10" width="6" height="7.7"/>
	<polygon class="st10" points="163.4,1072.4 173.7,1072.4 172.4,1079.7 164.7,1079.7 	"/>
	<polygon class="st10" points="163.4,1072.5 173.7,1072.5 172.8,1069.9 164.3,1069.9 	"/>
	
		<rect x="149.6" y="1079.7" transform="matrix(-1 -1.224647e-16 1.224647e-16 -1 303.9756 2161.8049)" class="st10" width="4.7" height="2.5"/>
	<polygon class="st10" points="147.5,1074.7 156.6,1074.7 155.5,1079.8 148.4,1079.8 	"/>
	<polygon class="st10" points="147.5,1074.8 156.6,1074.8 156.3,1072.8 147.8,1072.8 	"/>
	<rect x="133" y="1088.4" class="st10" width="5.5" height="12.4"/>
	<path class="st10" d="M138.5,1100h-6v10.3c0,1.7,1.4,3.2,3.2,3.2h2.8V1100z"/>
	<rect x="133" y="1079.5" class="st10" width="5.1" height="2.5"/>
	<rect x="132.5" y="1081.2" class="st10" width="6" height="7.7"/>
	<polygon class="st10" points="140.7,1072.4 130.4,1072.4 131.7,1079.7 139.4,1079.7 	"/>
	<polygon class="st10" points="140.7,1072.5 130.4,1072.5 131.3,1069.9 139.8,1069.9 	"/>
	<polygon class="st10" points="144.1,1082 160,1082 162.4,1085.8 141.7,1085.8 	"/>
	<g>
		<line class="st10" x1="158.9" y1="1085.9" x2="156.9" y2="1081.9"/>
		<line class="st10" x1="154.5" y1="1085.9" x2="153.2" y2="1081.9"/>
	</g>
	<g>
		<line class="st10" x1="145.2" y1="1085.9" x2="147.2" y2="1081.9"/>
		<line class="st10" x1="149.6" y1="1085.9" x2="150.9" y2="1081.9"/>
	</g>
</g>
<g>
	<polygon class="st10" points="135.3,544.2 135.3,542.1 144.8,542.1 144.8,540.9 146.9,540.9 146.9,544.2 	"/>
	<rect x="140.1" y="530.8" class="st10" width="2.1" height="4.7"/>
	<path class="st10" d="M135.3,522v-3.1h2.1v3.1c0,0.5,0.4,0.9,0.9,0.9h0.9c0.5,0,0.9-0.4,0.9-0.9v-2.1h2.1v2.1
		c0,0.5,0.4,0.9,0.9,0.9h0.9c0.5,0,0.9-0.4,0.9-0.9v-3.1h2.1v3.1c0,1.6-1.3,3-3,3H143c-0.7,0-1.4-0.3-1.9-0.7
		c-0.5,0.4-1.2,0.7-1.9,0.7h-0.9C136.6,524.9,135.3,523.6,135.3,522z"/>
	<path class="st10" d="M135.3,495v-3.1h2.1v3.1c0,0.5,0.4,0.9,0.9,0.9h0.9c0.5,0,0.9-0.4,0.9-0.9v-2.1h2.1v2.1
		c0,0.5,0.4,0.9,0.9,0.9h0.9c0.5,0,0.9-0.4,0.9-0.9v-3.1h2.1v3.1c0,1.6-1.3,3-3,3H143c-0.7,0-1.4-0.3-1.9-0.7
		c-0.5,0.4-1.2,0.7-1.9,0.7h-0.9C136.6,497.9,135.3,496.6,135.3,495z"/>
	<polygon class="st10" points="143.8,512.4 145.3,510.9 142.6,508.2 145.3,505.5 143.8,504 141.1,506.7 138.4,504 136.9,505.5 
		139.6,508.2 136.9,510.9 138.4,512.4 141.1,509.7 	"/>
</g>
</svg>
