<?xml version="1.0" encoding="utf-8"?>
<!-- Generator: Adobe Illustrator 21.0.2, SVG Export Plug-In . SVG Version: 6.00 Build 0)  -->
<svg version="1.1" id="Layer_1" xmlns="http://www.w3.org/2000/svg" xmlns:xlink="http://www.w3.org/1999/xlink" x="0px" y="0px"
	 viewBox="0 0 1366 768" style="enable-background:new 0 0 1366 768;" xml:space="preserve">
<style type="text/css">
	.st0{fill:none;stroke:#000000;stroke-linecap:square;stroke-miterlimit:10;}
</style>
<polyline class="st0" points="670.3,423.5 670.3,409 668.7,409 "/>
<path class="st0" d="M681.8,420.7v-8.6c0-1.8-1.4-3.2-3.2-3.2H676"/>
<polyline class="st0" points="713.7,412.4 713.7,409 712,409 "/>
<polyline class="st0" points="694.3,412.4 694.3,409 692.6,409 "/>
<path class="st0" d="M699.6,405.5v3.5h7.2l0,7.2c0,2.5-2,4.5-4.5,4.5l0,0"/>
<line class="st0" x1="675.9" y1="420.7" x2="683.5" y2="420.7"/>
<path class="st0" d="M708.1,414.4"/>
<path class="st0" d="M652.4,422.1h-2.8c-1.9,0-3.4-1.5-3.4-3.4v-0.1c0-1.9,1.5-3.4,3.4-3.4h2.8c1.9,0,3.4,1.5,3.4,3.4v0.1
	C655.8,420.6,654.3,422.1,652.4,422.1z"/>
<path class="st0" d="M651.7,415.2h-1.4c-1.9,0-3.4-1.5-3.4-3.4v-0.1c0-1.9,1.5-3.4,3.4-3.4h1.4c1.9,0,3.4,1.5,3.4,3.4v0.1
	C655.1,413.7,653.6,415.2,651.7,415.2z"/>
</svg>
