<?xml version="1.0" encoding="utf-8"?>
<!-- Generator: Adobe Illustrator 21.0.2, SVG Export Plug-In . SVG Version: 6.00 Build 0)  -->
<svg version="1.1" id="Layer_1" xmlns="http://www.w3.org/2000/svg" xmlns:xlink="http://www.w3.org/1999/xlink" x="0px" y="0px"
	 viewBox="0 0 1366 768" style="enable-background:new 0 0 1366 768;" xml:space="preserve">
<style type="text/css">
	.st0{fill:none;}
</style>
<path id="Track_3" class="st0" d="M618.5,338.2c-26.4-19.1-43.2-48.6-45.7-81.2c-2.6-32.5,9-64.3,32.2-87.5
	c21-21,48.8-32.5,78.4-32.5s57.6,11.5,78.4,32.5c23.1,23.1,34.7,55,32.2,87.5c-2.6,32.5-19.3,62.1-45.7,81.2l-116.2,83.6
	c-21,15-34.1,38.4-36.2,64.1c-2.1,25.7,7.1,50.9,25.4,69.2c34.2,34.2,89.9,34.2,124.1,0c18.2-18.2,27.4-43.5,25.4-69.2
	c-2.1-25.7-15.3-49-36.2-64.1L618.5,338.2z"/>
<path id="Track_2" class="st0" d="M763.3,572.7c49.1-49.2,42.6-130.9-14-171.5l-115.9-83.6c-43-30.9-48-92.9-10.6-130.3l0,0
	c33.4-33.5,87.8-33.5,121.3,0l0,0c37.4,37.4,32.4,99.4-10.6,130.3l-116.2,83.6c-56.5,40.7-63.1,122.2-13.9,171.5l0,0
	C647.7,616.8,719.2,616.8,763.3,572.7L763.3,572.7z"/>
<path id="Track_1" class="st0" d="M718.8,297.2l-116.2,83.6c-32.9,23.6-53.7,60.4-56.9,100.9c-3.3,40.4,11.3,80.1,40,108.8
	c26.9,26.9,62.3,40.4,97.8,40.4s70.7-13.5,97.8-40.4c28.7-28.7,43.3-68.3,40-108.8c-3.3-40.5-24.1-77.3-56.9-100.9L648,297.2
	c-14.5-10.4-23.6-26.5-25.1-44.3c-1.4-17.7,4.9-35.2,17.6-47.7c11.4-11.4,26.6-17.7,42.9-17.7s31.5,6.3,42.9,17.7
	c12.6,12.6,19.1,30,17.6,47.7C742.3,270.6,733.3,286.8,718.8,297.2z"/>
</svg>
