<?xml version="1.0" encoding="utf-8"?>
<!-- Generator: Adobe Illustrator 21.0.2, SVG Export Plug-In . SVG Version: 6.00 Build 0)  -->
<svg version="1.1" id="Layer_1" xmlns="http://www.w3.org/2000/svg" xmlns:xlink="http://www.w3.org/1999/xlink" x="0px" y="0px"
	 viewBox="0 0 1366 768" style="enable-background:new 0 0 1366 768;" xml:space="preserve">
<style type="text/css">
	.st0{fill:none;}
</style>
<path id="Track_3" class="st0" d="M620.3,339.4c-25.7-18.6-42-47.3-44.5-79c-2.5-31.6,8.8-62.6,31.3-85.1
	c20.4-20.4,47.5-31.6,76.3-31.6s56,11.2,76.3,31.6c22.5,22.5,33.8,53.5,31.3,85.1c-2.5,31.6-18.8,60.4-44.5,79l-113,81.3
	c-20.4,14.6-33.2,37.4-35.2,62.4s6.9,49.5,24.7,67.3c33.3,33.3,87.5,33.3,120.7,0c17.7-17.7,26.7-42.3,24.7-67.3
	c-2-25-14.9-47.7-35.2-62.4L620.3,339.4z"/>
<path id="Track_2" class="st0" d="M761.1,567.6c47.8-47.9,41.4-127.3-13.6-166.8l-112.8-81.3c-41.8-30.1-46.7-90.4-10.3-126.8l0,0
	c32.5-32.6,85.4-32.6,118,0l0,0c36.4,36.4,31.5,96.7-10.3,126.8l-113,81.3c-55,39.6-61.4,118.9-13.5,166.8l0,0
	C648.7,610.5,718.2,610.5,761.1,567.6L761.1,567.6z"/>
<path id="Track_1" class="st0" d="M717.8,299.6l-113,81.3c-32,23-52.2,58.8-55.4,98.2c-3.2,39.3,11,77.9,38.9,105.8
	c26.2,26.2,60.6,39.3,95.1,39.3s68.8-13.1,95.1-39.3c27.9-27.9,42.1-66.4,38.9-105.8c-3.2-39.4-23.4-75.2-55.4-98.2l-113-81.3
	c-14.1-10.1-23-25.8-24.4-43.1c-1.4-17.2,4.8-34.2,17.1-46.4c11.1-11.1,25.9-17.2,41.7-17.2s30.6,6.1,41.7,17.2
	c12.3,12.3,18.6,29.2,17.1,46.4S731.9,289.4,717.8,299.6z"/>
</svg>
