<?xml version="1.0" encoding="utf-8"?>
<!-- Generator: Adobe Illustrator 19.0.0, SVG Export Plug-In . SVG Version: 6.00 Build 0)  -->
<svg version="1.1" id="dude" xmlns="http://www.w3.org/2000/svg" xmlns:xlink="http://www.w3.org/1999/xlink" x="0px" y="0px"
	 viewBox="-444 194.4 70.8 172.6" style="enable-background:new -444 194.4 70.8 172.6;" xml:space="preserve">
<style type="text/css">
	.st0{fill:#FFFFFF;stroke:#221F1F;stroke-width:2;stroke-miterlimit:10;}
	.st1{fill:none;stroke:#221F1F;stroke-width:1.6585;stroke-miterlimit:10;}
	.st2{fill:none;stroke:#221F1F;stroke-width:2;stroke-miterlimit:10;}
	.st3{fill:#CE6E6E;}
</style>
<g>
	<polygon id="XMLID_1_" class="st0" points="-424.4,247.8 -396.9,247.8 -396.9,279.9 -396.9,353.9 -424.4,353.9 	"/>
	<polyline id="XMLID_921_" class="st1" points="-409.4,335.2 -411.9,335.2 -411.9,340.9 -414.7,340.9 	"/>
	<line id="XMLID_4_" class="st1" x1="-406.1" y1="340.9" x2="-408.4" y2="340.9"/>
	<line id="XMLID_8_" class="st2" x1="-410.8" y1="247.9" x2="-410.8" y2="270.9"/>
	<polyline id="XMLID_3_" class="st2" points="-424.4,289.9 -417.3,289.9 -417.3,319.2 	"/>
	<polyline id="XMLID_6_" class="st2" points="-396.9,289.9 -403.9,289.9 -403.9,319.2 	"/>
	<line id="XMLID_7_" class="st2" x1="-400.9" y1="353.9" x2="-400.9" y2="349.9"/>
	<line id="XMLID_9_" class="st2" x1="-404.9" y1="353.9" x2="-404.9" y2="349.9"/>
	<circle class="st3" cx="-402.3" cy="331.7" r="2"/>
	<circle class="st3" cx="-417.8" cy="331.7" r="2"/>
	<g>
		<line class="st2" x1="-398.9" y1="240.3" x2="-398.9" y2="224.3"/>
		<line class="st2" x1="-410.7" y1="240.3" x2="-410.7" y2="204.3"/>
		<line class="st2" x1="-422.4" y1="240.3" x2="-422.4" y2="219.7"/>
		<line class="st2" x1="-398.9" y1="220.3" x2="-398.9" y2="216.7"/>
	</g>
</g>
</svg>
