<?xml version="1.0" encoding="utf-8"?>
<!-- Generator: Adobe Illustrator 19.0.0, SVG Export Plug-In . SVG Version: 6.00 Build 0)  -->
<svg version="1.1" id="dude" xmlns="http://www.w3.org/2000/svg" xmlns:xlink="http://www.w3.org/1999/xlink" x="0px" y="0px"
	 viewBox="-444 194.4 70.8 172.6" style="enable-background:new -444 194.4 70.8 172.6;" xml:space="preserve">
<style type="text/css">
	.st0{fill:#FFFFFF;stroke:#221F1F;stroke-width:2;stroke-miterlimit:10;}
	.st1{fill:none;stroke:#221F1F;stroke-width:1.6585;stroke-miterlimit:10;}
	.st2{fill:none;stroke:#221F1F;stroke-width:2;stroke-miterlimit:10;}
	.st3{fill:#CE6E6E;}
</style>
<g>
	<polygon id="XMLID_1_" class="st0" points="-394.9,312 -422.4,312 -422.4,279.9 -422.4,205.9 -394.9,205.9 	"/>
	<polyline id="XMLID_921_" class="st1" points="-409.9,224.6 -407.4,224.6 -407.4,218.9 -404.6,218.9 	"/>
	<line id="XMLID_4_" class="st1" x1="-413.2" y1="218.9" x2="-410.9" y2="218.9"/>
	<line id="XMLID_8_" class="st2" x1="-408.5" y1="311.9" x2="-408.5" y2="288.9"/>
	<polyline id="XMLID_3_" class="st2" points="-394.9,269.9 -402,269.9 -402,240.6 	"/>
	<polyline id="XMLID_6_" class="st2" points="-422.4,269.9 -415.4,269.9 -415.4,240.6 	"/>
	<line id="XMLID_7_" class="st2" x1="-418.4" y1="205.9" x2="-418.4" y2="209.9"/>
	<line id="XMLID_9_" class="st2" x1="-414.4" y1="205.9" x2="-414.4" y2="209.9"/>
	<circle class="st3" cx="-417" cy="228.1" r="2"/>
	<circle class="st3" cx="-401.5" cy="228.1" r="2"/>
	<g>
		<line class="st2" x1="-420.4" y1="319.5" x2="-420.4" y2="335.5"/>
		<line class="st2" x1="-408.6" y1="319.5" x2="-408.6" y2="355.5"/>
		<line class="st2" x1="-396.9" y1="319.5" x2="-396.9" y2="340.1"/>
		<line class="st2" x1="-420.4" y1="339.5" x2="-420.4" y2="343.1"/>
	</g>
</g>
</svg>
