<?xml version="1.0" encoding="utf-8"?>
<!-- Generator: Adobe Illustrator 19.0.0, SVG Export Plug-In . SVG Version: 6.00 Build 0)  -->
<svg version="1.1" id="Layer_1" xmlns="http://www.w3.org/2000/svg" xmlns:xlink="http://www.w3.org/1999/xlink" x="0px" y="0px"
	 viewBox="0 0 960 901" style="enable-background:new 0 0 960 901;" xml:space="preserve">
<style type="text/css">
	.st0{fill:#FFFFFF;stroke:#000000;stroke-width:2;stroke-miterlimit:10;}
	.st1{fill:none;stroke:#000000;stroke-width:2;stroke-miterlimit:10;}
</style>
<g id="XMLID_24_">
	<path id="XMLID_27_" class="st0" d="M553.3,340.2L553.3,340.2c-4.7,0-8.6-3.8-8.6-8.6v-58.8c0-4.7,3.8-8.6,8.6-8.6l0,0
		c4.7,0,8.6,3.8,8.6,8.6v58.8C561.9,336.4,558,340.2,553.3,340.2z"/>
	<line id="XMLID_26_" class="st1" x1="553" y1="331" x2="553" y2="301"/>
	<line id="XMLID_25_" class="st1" x1="553" y1="295" x2="553" y2="287"/>
</g>
<g id="XMLID_9_">
	<path id="XMLID_12_" class="st0" d="M526.8,340.2L526.8,340.2c-4.7,0-8.6-3.8-8.6-8.6V228.9c0-4.7,3.8-8.6,8.6-8.6l0,0
		c4.7,0,8.6,3.8,8.6,8.6v102.8C535.4,336.4,531.5,340.2,526.8,340.2z"/>
	<line id="XMLID_11_" class="st1" x1="527" y1="331" x2="527" y2="283"/>
	<line id="XMLID_10_" class="st1" x1="527" y1="273" x2="527" y2="261"/>
</g>
<circle id="XMLID_3_" class="st0" cx="507.2" cy="41.8" r="4.8"/>
<circle id="XMLID_5_" class="st0" cx="524.3" cy="133.3" r="8.6"/>
<circle id="XMLID_14_" class="st0" cx="507.3" cy="555.3" r="8.6"/>
<circle id="XMLID_18_" class="st0" cx="434.3" cy="68.3" r="8.6"/>
<circle id="XMLID_17_" class="st0" cx="478.3" cy="287.3" r="15.6"/>
<line id="XMLID_6_" class="st1" x1="431" y1="273" x2="431" y2="283"/>
<line id="XMLID_23_" class="st1" x1="506" y1="379" x2="506" y2="411"/>
<line id="XMLID_15_" class="st1" x1="506" y1="461" x2="506" y2="493"/>
<line id="XMLID_36_" class="st1" x1="506" y1="616" x2="506" y2="648"/>
<line id="XMLID_16_" class="st1" x1="506" y1="698" x2="506" y2="730"/>
<line id="XMLID_7_" class="st1" x1="426" y1="278" x2="436" y2="278"/>
<line id="XMLID_8_" class="st1" x1="575" y1="93" x2="575" y2="103"/>
<line id="XMLID_4_" class="st1" x1="570" y1="98" x2="580" y2="98"/>
<rect id="XMLID_1_" x="484" y="195" class="st0" width="12" height="12"/>
</svg>
