<?xml version="1.0" encoding="utf-8"?>
<!-- Generator: Adobe Illustrator 19.0.0, SVG Export Plug-In . SVG Version: 6.00 Build 0)  -->
<svg version="1.1" id="Layer_1" xmlns="http://www.w3.org/2000/svg" xmlns:xlink="http://www.w3.org/1999/xlink" x="0px" y="0px"
	 viewBox="0 0 600 600" style="enable-background:new 0 0 600 600;" xml:space="preserve">
<style type="text/css">
	.st0{fill:none;stroke:#000000;stroke-miterlimit:10;}
</style>
<path id="XMLID_29_" class="st0" d="M228.7,215.4"/>
<path id="XMLID_28_" class="st0" d="M228.7,187.1c-15.3,0-27.7,12.4-27.7,27.7v1.6c0,15.3,12.4,27.7,27.7,27.7h142.6
	c15.3,0,27.7,12.4,27.7,27.7v0c0,15.3-12.4,27.7-27.7,27.7H228.7c-15.3,0-27.7,12.4-27.7,27.7v1.6c0,15.3,12.4,27.7,27.7,27.7h142.6
	c15.3,0,27.7,12.4,27.7,27.7v0.8c0,15.3-12.4,27.7-27.7,27.7H228.7c-15.3,0-27.7-12.4-27.7-27.7v-0.8c0-15.3,12.4-27.7,27.7-27.7
	h142.6c15.3,0,27.7-12.4,27.7-27.7v-1.6c0-15.3-12.4-27.7-27.7-27.7H228.7c-15.3,0-27.7-12.4-27.7-27.7v0
	c0-15.3,12.4-27.7,27.7-27.7h142.6c15.3,0,27.7-12.4,27.7-27.7v-1.6c0-15.3-12.4-27.7-27.7-27.7H228.7z"/>
</svg>
