<?xml version="1.0" encoding="utf-8"?>
<!-- Generator: Adobe Illustrator 19.0.0, SVG Export Plug-In . SVG Version: 6.00 Build 0)  -->
<svg version="1.1" id="Layer_1" xmlns="http://www.w3.org/2000/svg" xmlns:xlink="http://www.w3.org/1999/xlink" x="0px" y="0px"
	 viewBox="0 0 600 600" style="enable-background:new 0 0 600 600;" xml:space="preserve">
<style type="text/css">
	.st0{fill:none;stroke:#000000;stroke-miterlimit:10;}
</style>
<path id="XMLID_86_" class="st0" d="M157.7,372.8V229.6c0-39.5,32-71.6,71.6-71.6h0c39.5,0,71.6,32,71.6,71.6v143.1
	c0,39.5,32,71.6,71.6,71.6h0c39.5,0,71.6-32,71.6-71.6V229.6c0-39.5-32-71.6-71.6-71.6h0c-39.5,0-71.6,32-71.6,71.6v143.1
	c0,39.5-32,71.6-71.6,71.6h0C189.8,444.4,157.7,412.3,157.7,372.8z"/>
<path id="XMLID_85_" class="st0" d="M205.4,372.8V229.6c0-13.2,10.7-23.9,23.9-23.9h0c13.2,0,23.9,10.7,23.9,23.9v142.8
	c0,65.7,53.2,118.9,118.9,118.9h0c65.7,0,118.9-53.2,118.9-118.9V229.3c0-65.7-53.2-118.9-118.9-118.9h0
	c-65.7,0-118.9,53.2-118.9,118.9v143.5c0,13.2-10.7,23.9-23.9,23.9h0C216.1,396.6,205.4,386,205.4,372.8z"/>
<path id="XMLID_84_" class="st0" d="M396.3,229.6v143.1c0,13.2-10.7,23.9-23.9,23.9h0c-13.2,0-23.9-10.7-23.9-23.9V229.1
	c0-65.9-53.4-119.3-119.3-119.3h0c-65.9,0-119.3,53.4-119.3,119.3v142.9c0,65.9,53.4,119.3,119.3,119.3h0
	c65.9,0,119.3-53.4,119.3-119.3V229.6c0-13.2,10.7-23.9,23.9-23.9h0C385.6,205.8,396.3,216.5,396.3,229.6z"/>
</svg>
