<?xml version="1.0" encoding="utf-8"?>
<!-- Generator: Adobe Illustrator 19.0.0, SVG Export Plug-In . SVG Version: 6.00 Build 0)  -->
<svg version="1.1" id="Layer_1" xmlns="http://www.w3.org/2000/svg" xmlns:xlink="http://www.w3.org/1999/xlink" x="0px" y="0px"
	 viewBox="0 0 960 560" style="enable-background:new 0 0 960 560;" xml:space="preserve">
<style type="text/css">
	.st0{fill:#FFFFFF;stroke:#000000;stroke-width:2;stroke-miterlimit:10;}
	.st1{fill:none;stroke:#000000;stroke-width:2;stroke-miterlimit:10;}
</style>
<g id="XMLID_14_">
	<path id="XMLID_1_" class="st0" d="M484,299.4L484,299.4c5.7,0,10.3,4.6,10.3,10.3v84.2c0,5.7-4.6,10.3-10.3,10.3l0,0
		c-5.7,0-10.3-4.6-10.3-10.3v-84.2C473.7,304,478.3,299.4,484,299.4z"/>
	<line id="XMLID_2_" class="st1" x1="484" y1="394" x2="484" y2="355"/>
	<line id="XMLID_5_" class="st1" x1="484" y1="341" x2="484" y2="334"/>
</g>
<g id="XMLID_13_">
	<path id="XMLID_3_" class="st0" d="M484,251.2L484,251.2c4.7,0,8.6,3.9,8.6,8.6v13.1c0,4.7-3.9,8.6-8.6,8.6l0,0
		c-4.7,0-8.6-3.9-8.6-8.6v-13.1C475.4,255.1,479.3,251.2,484,251.2z"/>
	<line id="XMLID_6_" class="st1" x1="484" y1="274" x2="484" y2="266"/>
	<line id="XMLID_7_" class="st1" x1="484" y1="262" x2="484" y2="259"/>
</g>
<g id="XMLID_11_">
	<path id="XMLID_4_" class="st0" d="M484,185.2L484,185.2c3.9,0,7.1,3.2,7.1,7.1v0c0,3.9-3.2,7.1-7.1,7.1l0,0
		c-3.9,0-7.1-3.2-7.1-7.1v0C476.9,188.4,480.1,185.2,484,185.2z"/>
	<line id="XMLID_8_" class="st1" x1="484" y1="193" x2="484" y2="195"/>
</g>
<g id="XMLID_15_">
	<line id="XMLID_10_" class="st1" x1="488.2" y1="221.8" x2="479.8" y2="230.2"/>
	<line id="XMLID_9_" class="st1" x1="488.2" y1="230.2" x2="479.8" y2="221.8"/>
</g>
<line id="XMLID_18_" class="st1" x1="484" y1="136" x2="484" y2="151"/>
<line id="XMLID_12_" class="st1" x1="469" y1="166" x2="469" y2="168"/>
<line id="XMLID_16_" class="st1" x1="509" y1="206" x2="509" y2="210"/>
<line id="XMLID_17_" class="st1" x1="452" y1="324" x2="452" y2="327"/>
<line id="XMLID_20_" class="st1" x1="518" y1="356" x2="518" y2="359"/>
<line id="XMLID_21_" class="st1" x1="420" y1="402" x2="432.3" y2="406"/>
<line id="XMLID_22_" class="st1" x1="437" y1="283.5" x2="442" y2="277"/>
<circle id="XMLID_23_" class="st0" cx="524" cy="272" r="6"/>
<line id="XMLID_19_" class="st1" x1="481" y1="166" x2="488" y2="166"/>
</svg>
