<?xml version="1.0" encoding="utf-8"?>
<!-- Generator: Adobe Illustrator 21.0.2, SVG Export Plug-In . SVG Version: 6.00 Build 0)  -->
<svg version="1.1" id="Layer_1" xmlns="http://www.w3.org/2000/svg" xmlns:xlink="http://www.w3.org/1999/xlink" x="0px" y="0px"
	 viewBox="0 0 297 1443.3" style="enable-background:new 0 0 297 1443.3;" xml:space="preserve">
<style type="text/css">
	.st0{fill:#067BC2;}
	.st1{fill:#17BEBB;}
	.st2{fill:#FABC3C;}
	.st3{fill:#FE5F55;}
	.st4{fill:#D33F49;}
	.st5{fill:none;stroke:#000000;stroke-miterlimit:10;}
	.st6{opacity:7.000000e-02;}
	.st7{fill:#1A8420;}
	.st8{fill:#FFFFFF;stroke:#000000;stroke-miterlimit:10;}
	.st9{fill:#FFFFFF;}
	.st10{display:none;}
	.st11{display:inline;}
	.st12{display:inline;fill-rule:evenodd;clip-rule:evenodd;fill:#FFFFFF;stroke:#000000;stroke-miterlimit:10;}
	.st13{fill-rule:evenodd;clip-rule:evenodd;fill:#FFFFFF;stroke:#000000;stroke-miterlimit:10;}
	.st14{fill:none;}
</style>
<path class="st0" d="M151.2,960.7L151.2,960.7c3.7,0,6.8,3,6.8,6.8v40.9c0,3.7-3,6.8-6.8,6.8h0c-3.7,0-6.8-3-6.8-6.8v-40.9
	C144.4,963.8,147.4,960.7,151.2,960.7z"/>
<path class="st1" d="M151.2,466.8L151.2,466.8c3.7,0,6.8,3,6.8,6.8v29.9c0,3.7-3,6.8-6.8,6.8h0c-3.7,0-6.8-3-6.8-6.8v-29.9
	C144.4,469.8,147.4,466.8,151.2,466.8z"/>
<path class="st2" d="M151.2,1130.2L151.2,1130.2c3.7,0,6.8,3,6.8,6.8v62.9c0,3.7-3,6.8-6.8,6.8h0c-3.7,0-6.8-3-6.8-6.8V1137
	C144.4,1133.2,147.4,1130.2,151.2,1130.2z"/>
<path class="st3" d="M151.2,618.6L151.2,618.6c3.7,0,6.8,3,6.8,6.8v62.9c0,3.7-3,6.8-6.8,6.8h0c-3.7,0-6.8-3-6.8-6.8v-62.9
	C144.4,621.6,147.4,618.6,151.2,618.6z"/>
<path class="st4" d="M151.2,332.8L151.2,332.8c3.7,0,6.8,3,6.8,6.8v20c0,3.7-3,6.8-6.8,6.8h0c-3.7,0-6.8-3-6.8-6.8v-20
	C144.4,335.8,147.4,332.8,151.2,332.8z"/>
<line class="st5" x1="165.3" y1="625.6" x2="165.3" y2="596.3"/>
<line class="st5" x1="134.1" y1="709.7" x2="134.1" y2="680.3"/>
<line class="st5" x1="174.7" y1="724.4" x2="174.7" y2="674.2"/>
<line class="st5" x1="140.6" y1="920.9" x2="140.6" y2="891.5"/>
<line class="st5" x1="160.3" y1="933.7" x2="160.3" y2="904.3"/>
<line class="st5" x1="151.2" y1="404.5" x2="151.2" y2="433.9"/>
<circle class="st6" cx="184.2" cy="780.8" r="15.6"/>
<circle class="st6" cx="124.7" cy="594.2" r="9.3"/>
<circle class="st6" cx="118.1" cy="1087" r="13.8"/>
<g>
	<circle class="st7" cx="149.5" cy="570.5" r="2.6"/>
	<circle class="st7" cx="149.5" cy="578.2" r="2.6"/>
	<circle class="st7" cx="149.5" cy="586" r="2.6"/>
	<circle class="st7" cx="149.5" cy="593.7" r="2.6"/>
</g>
<g>
	<polygon class="st3" points="155,1073.1 147.3,1073.1 151.2,1078.7 	"/>
	<polygon class="st3" points="155,1065.1 147.3,1065.1 151.2,1070.7 	"/>
	<polygon class="st3" points="155,1057 147.3,1057 151.2,1062.6 	"/>
	<polygon class="st3" points="155,1049 147.3,1049 151.2,1054.6 	"/>
</g>
<path class="st8" d="M151.7,775v-43.5c0-1.2-0.9-2.3-2.1-2.3c-1.2,0-2.3,1-2.3,2.2V775c0,0.7,0.3,1.3,0.9,1.7
	c0.2,0.2,0.3,0.4,0.3,0.6v0.9c0,0.2-0.1,0.4-0.2,0.6c-0.3,0.3-0.5,0.8-0.5,1.8c0,2,0.8,3.6,1.8,3.6c1,0,1.8-1.6,1.8-3.6
	c0-1-0.2-1.5-0.5-1.8c-0.2-0.1-0.2-0.3-0.2-0.6v-0.9c0-0.3,0.1-0.5,0.3-0.6C151.3,776.4,151.7,775.7,151.7,775z"/>
<g>
	<g>
		<path class="st9" d="M146,1286.3l-17.7-50.5c-0.2-0.7-0.2-1.4,0.2-1.9c0.4-0.6,1.1-0.9,1.8-0.9c0.4,0,1,0.1,1.6,0.8l16.1,18.9
			c0.9,1,2.1,1.6,3.4,1.6c1.3,0,2.6-0.6,3.5-1.6l15.5-18.8c0.6-0.7,1.2-0.8,1.6-0.8c0.7,0,1.4,0.4,1.9,1c0.4,0.6,0.5,1.3,0.2,2
			l-17.6,50.3l-5.1,4.7L146,1286.3z"/>
		<path d="M130.3,1233.4L130.3,1233.4c0.5,0,0.9,0.2,1.2,0.6l16.1,18.9c1,1.1,2.3,1.8,3.8,1.8c1.5,0,2.9-0.7,3.8-1.8l15.5-18.8
			c0.4-0.5,0.9-0.6,1.3-0.6c0.6,0,1.1,0.3,1.5,0.8c0.2,0.3,0.4,0.8,0.2,1.5l-17.6,50.2l-4.7,4.3l-5-4.2l-17.7-50.4
			c-0.2-0.7,0-1.2,0.2-1.5C129.2,1233.7,129.7,1233.4,130.3,1233.4 M130.3,1232.4c-1.6,0-3.2,1.6-2.5,3.5l17.8,50.7l5.8,4.9l5.5-5.1
			l17.7-50.4c0.7-2-0.9-3.6-2.6-3.6c-0.7,0-1.5,0.3-2,1l-15.5,18.8c-0.8,1-1.9,1.4-3.1,1.4c-1.1,0-2.2-0.5-3-1.4l-16.1-18.9
			C131.7,1232.7,131,1232.4,130.3,1232.4L130.3,1232.4z"/>
	</g>
	<g>
		<path class="st9" d="M151.1,1351.7c-0.5,0-1-0.4-1.1-0.9l-3.6-13.9l0.8-0.5c0.8-0.5,1.4-1.2,1.7-2.1l0.4-0.9h3.7l0.5,1.1
			c0.3,0.7,0.8,1.4,1.5,1.8l1,0.6l-3.6,13.9c-0.1,0.5-0.6,0.9-1.1,0.9H151.1z"/>
		<path d="M152.7,1333.9l0.3,0.8c0.3,0.8,0.9,1.5,1.7,2l0.7,0.5l-3.5,13.5c-0.1,0.3-0.3,0.5-0.7,0.5h-0.2c-0.3,0-0.6-0.2-0.7-0.5
			l-3.5-13.5l0.5-0.3c0.9-0.6,1.5-1.4,1.9-2.3l0.3-0.6H152.7 M153.3,1332.9H149l-0.5,1.2c-0.3,0.8-0.9,1.4-1.5,1.8l-1.1,0.7
			l3.7,14.2c0.2,0.7,0.9,1.3,1.6,1.3h0.2c0.8,0,1.4-0.5,1.6-1.3l3.7-14.2l-1.3-0.8c-0.6-0.4-1-0.9-1.3-1.6L153.3,1332.9
			L153.3,1332.9z"/>
	</g>
	<g>
		<path class="st9" d="M151,1336.8c-0.5-0.8-0.9-1.7-1.2-2.6l-0.4-1.3l-0.9-49.6h5.1l-0.9,49.6l-0.2,1c-0.2,1.1-0.7,2.2-1.3,3.1
			l0,0.1L151,1336.8z"/>
		<path d="M153.2,1283.8l-0.9,49l-0.2,1c-0.2,0.8-0.5,1.6-0.9,2.4c-0.4-0.7-0.7-1.4-0.9-2.1l-0.3-1.3l-0.9-49H153.2 M154.2,1282.8
			h-6.2l0.9,50.1l0.4,1.4c0.3,1,0.7,1.9,1.3,2.8l0.6,0.9l0.5-0.7c0.7-1,1.2-2.1,1.4-3.3l0.2-1.1L154.2,1282.8L154.2,1282.8z"/>
	</g>
	<line class="st8" x1="153.2" y1="1333" x2="149.1" y2="1333"/>
	<circle cx="152.1" cy="1344.3" r="0.6"/>
	<circle cx="153.3" cy="1338.8" r="0.6"/>
	<circle cx="149" cy="1339" r="0.6"/>
	<circle cx="150.2" cy="1344.3" r="0.6"/>
	<path class="st8" d="M146.9,1258.4h8.5c0.2,0,0.4,0.2,0.4,0.4v4.3c0,0.2-0.2,0.4-0.4,0.4h-8.5c-0.2,0-0.4-0.2-0.4-0.4v-4.3
		C146.5,1258.6,146.7,1258.4,146.9,1258.4z"/>
	<path class="st8" d="M147.3,1266h7.6c0.1,0,0.3,0.1,0.3,0.3v2.7c0,0.1-0.1,0.3-0.3,0.3h-7.6c-0.1,0-0.3-0.1-0.3-0.3v-2.7
		C147.1,1266.1,147.2,1266,147.3,1266z"/>
	<path class="st8" d="M148.5,1275l5.9,1.8c0.5,0.2,0.8,0.7,0.6,1.2l0,0c-0.2,0.5-0.7,0.8-1.2,0.6l-5.9-1.8c-0.5-0.2-0.8-0.7-0.6-1.2
		l0,0C147.4,1275.1,148,1274.8,148.5,1275z"/>
	<path d="M147,1344.5l0.7,2.5c0,0,0,0.1-0.1,0.1l-1.4,0.4c-0.1,0-0.2,0-0.2-0.1l-0.6-2.3c0-0.1,0-0.2,0.1-0.2l1.4-0.4
		C146.9,1344.5,146.9,1344.5,147,1344.5z"/>
	<path d="M145.6,1339.2l0.7,2.5c0,0,0,0.1-0.1,0.1l-1.4,0.4c-0.1,0-0.2,0-0.2-0.1l-0.6-2.3c0-0.1,0-0.2,0.1-0.2l1.4-0.4
		C145.5,1339.1,145.6,1339.1,145.6,1339.2z"/>
	<path d="M155.3,1344.5l-0.7,2.5c0,0,0,0.1,0.1,0.1l1.4,0.4c0.1,0,0.2,0,0.2-0.1l0.6-2.3c0-0.1,0-0.2-0.1-0.2l-1.4-0.4
		C155.3,1344.5,155.3,1344.5,155.3,1344.5z"/>
	<path d="M156.9,1339.2l-0.7,2.5c0,0,0,0.1,0.1,0.1l1.4,0.4c0.1,0,0.2,0,0.2-0.1l0.6-2.3c0-0.1,0-0.2-0.1-0.2l-1.4-0.4
		C156.9,1339.1,156.9,1339.1,156.9,1339.2z"/>
</g>
<g>
	<polygon class="st8" points="126.8,559.7 124.7,559.7 124.7,556.5 136.5,556.5 136.5,558.6 126.8,558.6 	"/>
	<path class="st8" d="M133.1,554h-5c-2.1,0-3.8-1.7-3.8-3.8s1.7-3.8,3.8-3.8h5c2.1,0,3.8,1.7,3.8,3.8S135.2,554,133.1,554z
		 M128.1,548.4c-1,0-1.7,0.8-1.7,1.7c0,1,0.8,1.7,1.7,1.7h5c1,0,1.7-0.8,1.7-1.7c0-1-0.8-1.7-1.7-1.7H128.1z"/>
	<polygon class="st8" points="134.8,535.7 133.3,534.2 130.6,536.9 127.9,534.2 126.4,535.7 129.1,538.4 126.4,541.1 127.9,542.5 
		130.6,539.8 133.3,542.5 134.8,541.1 132.1,538.4 	"/>
	<path class="st8" d="M136.5,530h-2.1v-3.2c0-1.1-0.9-1.9-1.9-1.9c-1.1,0-1.9,0.9-1.9,1.9v3.2h-5.9v-5.9h2.1v3.9h1.8v-1.1
		c0-2.2,1.8-4,4-4c2.2,0,4,1.8,4,4V530z"/>
</g>
<g class="st10">
	<g class="st11">
		<path class="st8" d="M131.5,478.8h9.4c0.8,0,1.5,0.7,1.5,1.5v8.6c0,0.8,0.7,1.5,1.5,1.5h13.6c0.8,0,1.5-0.7,1.5-1.5v-8.6
			c0-0.8,0.7-1.5,1.5-1.5h9.4c0.8,0,1.5-0.7,1.5-1.5v-13.6c0-0.8-0.7-1.5-1.5-1.5h-9.4c-0.8,0-1.5-0.7-1.5-1.5V452
			c0-0.8-0.7-1.5-1.5-1.5h-13.6c-0.8,0-1.5,0.7-1.5,1.5v8.6c0,0.8-0.7,1.5-1.5,1.5h-9.4c-0.8,0-1.5,0.7-1.5,1.5v13.6
			C129.9,478.1,130.6,478.8,131.5,478.8z"/>
	</g>
	<circle class="st12" cx="163.6" cy="470.3" r="5.4"/>
	<g class="st11">
		<path d="M164.9,468.9v2.6h-2.6v-2.6H164.9 M165.9,467.9h-4.6v4.6h4.6V467.9L165.9,467.9z"/>
	</g>
	<circle class="st12" cx="137.7" cy="470.6" r="5.4"/>
	<g class="st11">
		<path d="M137.7,468.8c1,0,1.9,0.8,1.9,1.9s-0.8,1.9-1.9,1.9s-1.9-0.8-1.9-1.9S136.7,468.8,137.7,468.8 M137.7,467.8
			c-1.6,0-2.9,1.3-2.9,2.9c0,1.6,1.3,2.9,2.9,2.9c1.6,0,2.9-1.3,2.9-2.9C140.6,469,139.3,467.8,137.7,467.8L137.7,467.8z"/>
	</g>
	<circle class="st12" cx="150.7" cy="482.4" r="5.4"/>
	<g class="st11">
		<path d="M151.8,481.6l-1.1,1.9l-1.1-1.9H151.8 M153.5,480.6h-5.8l2.9,4.8L153.5,480.6L153.5,480.6z"/>
	</g>
	<circle class="st12" cx="150.7" cy="458.5" r="5.4"/>
	<g class="st11">
		<line class="st5" x1="152.6" y1="460.4" x2="148.7" y2="456.6"/>
	</g>
	<g class="st11">
		<line class="st5" x1="152.6" y1="456.6" x2="148.7" y2="460.4"/>
	</g>
</g>
<g>
	<g>
		
			<rect x="135.7" y="844.3" transform="matrix(0.7071 -0.7071 0.7071 0.7071 -558.0065 354.0782)" class="st9" width="25.4" height="12.6"/>
		<path d="M152.9,837.9l8.2,8.2l-17.2,17.2l-8.2-8.2L152.9,837.9 M152.9,836.5l-18.7,18.7l9.6,9.6l18.7-18.7L152.9,836.5
			L152.9,836.5z"/>
	</g>
	<g>
		<path class="st9" d="M130.5,856.4c-0.6-0.7-0.6-1.6-0.2-2.2l1.1-1.5c0.1-0.1,0.2-0.2,0.3-0.3l1.5-1.1c0.2-0.2,0.5-0.3,0.9-0.3
			c0.4,0,0.9,0.2,1.3,0.5l1.5,1.3l-5.1,5.1L130.5,856.4z"/>
		<path d="M134,851.7L134,851.7c0.3,0,0.7,0.1,1,0.4l1.1,0.9l-4.3,4.3l-0.9-1.1c-0.4-0.5-0.5-1.1-0.2-1.5l1.1-1.5
			c0-0.1,0.1-0.1,0.2-0.2l1.5-1.1C133.6,851.7,133.8,851.7,134,851.7 M134,850.7c-0.4,0-0.8,0.1-1.2,0.4l-1.5,1.1
			c-0.1,0.1-0.3,0.2-0.4,0.4l-1.1,1.5c-0.6,0.8-0.5,1.9,0.2,2.8l1.6,2l5.9-5.9l-2-1.6C135.1,850.9,134.5,850.7,134,850.7L134,850.7z
			"/>
	</g>
	<g>
		<path class="st9" d="M149.1,837.8c-0.6-0.7-0.6-1.6-0.2-2.2l1.1-1.5c0.1-0.1,0.2-0.2,0.3-0.3l1.5-1.1c0.2-0.2,0.5-0.3,0.9-0.3
			c0.4,0,0.9,0.2,1.3,0.5l1.5,1.3l-5.1,5.1L149.1,837.8z"/>
		<path d="M152.6,833L152.6,833c0.3,0,0.7,0.1,1,0.4l1.1,0.9l-4.3,4.3l-0.9-1.1c-0.4-0.5-0.5-1.1-0.2-1.5l1.1-1.5
			c0-0.1,0.1-0.1,0.2-0.2l1.5-1.1C152.2,833,152.5,833,152.6,833 M152.6,832c-0.4,0-0.8,0.1-1.2,0.4l-1.5,1.1
			c-0.1,0.1-0.3,0.2-0.4,0.4l-1.1,1.5c-0.6,0.8-0.5,1.9,0.2,2.8l1.6,2l5.9-5.9l-2-1.6C153.7,832.2,153.2,832,152.6,832L152.6,832z"
			/>
	</g>
	<g>
		<path class="st9" d="M143.1,874.9c-1.3,0-2.6-0.7-3.4-1.8l-6.9-9.6l12.2-5.2l2.2,11.6c0.4,1.9-0.7,3.9-2.5,4.6
			C144.1,874.8,143.6,874.9,143.1,874.9z"/>
		<path d="M144.6,859l2.1,11c0.3,1.7-0.6,3.4-2.2,4.1c-0.4,0.2-0.9,0.3-1.4,0.3c-1.2,0-2.3-0.6-3-1.5l-6.5-9.1L144.6,859
			 M145.4,857.6l-13.4,5.7l7.3,10.1c0.9,1.3,2.3,2,3.8,2c0.6,0,1.2-0.1,1.8-0.3h0c2.1-0.8,3.2-3,2.8-5.2L145.4,857.6L145.4,857.6z"
			/>
	</g>
	<g>
		<path class="st9" d="M138.1,866.3c-1.8,0-3.4-0.7-4.7-1.9c-1.2-1.2-1.9-2.9-1.9-4.7s0.7-3.4,1.9-4.7c1.2-1.2,2.9-1.9,4.7-1.9
			c1.8,0,3.4,0.7,4.7,1.9c0.4,0.4,0.8,0.9,1.1,1.4l0.3,0.6l0.5-0.4c0.8-0.7,1.8-1.1,2.9-1.1c1.1,0,2.2,0.4,3,1.2
			c0.8,0.8,1.2,1.8,1.2,3c0,1.1-0.4,2.2-1.2,3s-1.8,1.2-3,1.2l0,0c-1.1,0-2.1-0.4-2.8-1.1l-0.5-0.4l-0.3,0.6
			c-0.3,0.6-0.7,1.1-1.1,1.5C141.5,865.6,139.8,866.3,138.1,866.3z"/>
		<path d="M138.1,853.6c1.6,0,3.2,0.6,4.3,1.8c0.4,0.4,0.7,0.8,1,1.3l0.6,1.1l0.9-0.9c0.7-0.7,1.6-1,2.5-1c1,0,1.9,0.4,2.6,1.1
			c1.4,1.4,1.4,3.8,0,5.2c-0.7,0.7-1.6,1.1-2.6,1.1c-0.9,0-1.8-0.3-2.5-1l-0.9-0.9l-0.6,1.1c-0.3,0.5-0.6,1-1,1.4
			c-1.2,1.2-2.7,1.8-4.3,1.8c-1.6,0-3.2-0.6-4.3-1.8s-1.8-2.7-1.8-4.3s0.6-3.2,1.8-4.3S136.4,853.6,138.1,853.6 M138.1,852.6
			c-1.8,0-3.6,0.7-5,2.1c-2.8,2.8-2.8,7.3,0,10c1.4,1.4,3.2,2.1,5,2.1s3.6-0.7,5-2.1c0.5-0.5,0.9-1,1.2-1.6c0.9,0.8,2,1.2,3.2,1.2
			c1.2,0,2.4-0.5,3.3-1.4c1.8-1.8,1.8-4.8,0-6.6c-0.9-0.9-2.1-1.4-3.3-1.4c-1.2,0-2.3,0.4-3.2,1.3c-0.3-0.5-0.7-1.1-1.2-1.5
			C141.7,853.2,139.9,852.6,138.1,852.6L138.1,852.6z"/>
	</g>
	<g>
		<path class="st9" d="M168.1,849.8c-0.3,0-0.5,0-0.8-0.1l-11.6-2.2l5.2-12.2l9.6,6.9c1.6,1.1,2.2,3.2,1.4,5
			C171.3,848.8,169.8,849.8,168.1,849.8L168.1,849.8z"/>
		<path d="M161.1,836.1l9.1,6.5c1.4,1,1.9,2.8,1.3,4.4c-0.6,1.4-1.9,2.3-3.4,2.3c-0.2,0-0.5,0-0.7-0.1l-11-2.1L161.1,836.1
			 M160.6,834.6L155,848l12.2,2.3c0.3,0.1,0.6,0.1,0.9,0.1c1.9,0,3.6-1.1,4.3-2.9v0c0.8-2,0.2-4.3-1.6-5.6L160.6,834.6L160.6,834.6z
			"/>
	</g>
	<g>
		<path class="st9" d="M157,854.3c-1.1,0-2.2-0.4-3-1.2c-1.6-1.6-1.7-4.2-0.1-5.9l0.4-0.5l-0.6-0.3c-0.5-0.3-1-0.7-1.4-1.1
			c-2.6-2.6-2.6-6.8,0-9.3c1.2-1.2,2.9-1.9,4.7-1.9s3.4,0.7,4.7,1.9c2.6,2.6,2.6,6.8,0,9.3c-0.4,0.4-1,0.8-1.5,1.1l-0.6,0.3l0.4,0.5
			c1.5,1.7,1.5,4.2-0.1,5.8C159.1,853.9,158.1,854.3,157,854.3z"/>
		<path d="M157,834.6c1.6,0,3.2,0.6,4.3,1.8s1.8,2.7,1.8,4.3s-0.6,3.2-1.8,4.3c-0.4,0.4-0.9,0.8-1.4,1l-1.1,0.6l0.9,0.9
			c1.3,1.5,1.3,3.7-0.1,5.1c-0.7,0.7-1.6,1.1-2.6,1.1c-1,0-1.9-0.4-2.6-1.1c-1.4-1.4-1.5-3.7-0.1-5.2l0.9-0.9L154,846
			c-0.5-0.3-0.9-0.6-1.3-1c-1.2-1.2-1.8-2.7-1.8-4.3s0.6-3.2,1.8-4.3S155.4,834.6,157,834.6 M157,833.6c-1.8,0-3.6,0.7-5,2.1
			c-2.8,2.8-2.8,7.3,0,10c0.5,0.5,1,0.9,1.5,1.2c-1.7,1.8-1.7,4.7,0.1,6.5c0.9,0.9,2.1,1.4,3.3,1.4c1.2,0,2.4-0.5,3.3-1.4
			c1.8-1.8,1.8-4.6,0.1-6.5c0.6-0.3,1.1-0.7,1.6-1.2c2.8-2.8,2.8-7.3,0-10C160.7,834.3,158.9,833.6,157,833.6L157,833.6z"/>
	</g>
	<g>
		<path class="st9" d="M147.6,862c-0.6,0-1.2-0.3-1.7-0.7s-0.7-1.1-0.7-1.7s0.2-1.2,0.7-1.7c0.5-0.5,1.1-0.7,1.7-0.7c0,0,0,0,0,0
			c0.6,0,1.2,0.3,1.7,0.7c0.9,0.9,0.9,2.5,0,3.4C148.8,861.7,148.2,862,147.6,862z"/>
		<path d="M147.6,857.7c0.5,0,1,0.2,1.3,0.6c0.7,0.7,0.7,2,0,2.7c-0.4,0.4-0.8,0.6-1.3,0.6s-1-0.2-1.3-0.6s-0.6-0.8-0.6-1.3
			c0-0.5,0.2-1,0.6-1.3S147.1,857.7,147.6,857.7 M147.6,856.7c-0.7,0-1.5,0.3-2.1,0.9c-1.1,1.1-1.1,3,0,4.1c0.6,0.6,1.3,0.9,2.1,0.9
			s1.5-0.3,2.1-0.9c1.1-1.1,1.1-3,0-4.1C149.1,857,148.3,856.7,147.6,856.7L147.6,856.7z"/>
	</g>
	<g>
		<path class="st9" d="M157,852.5c-0.6,0-1.2-0.3-1.7-0.7c-0.5-0.5-0.7-1.1-0.7-1.7s0.2-1.2,0.7-1.7s1.1-0.7,1.7-0.7
			c0.6,0,1.2,0.2,1.7,0.7c0.5,0.5,0.7,1.1,0.7,1.7s-0.2,1.2-0.7,1.7C158.3,852.3,157.7,852.5,157,852.5z"/>
		<path d="M157,848.2c0.5,0,1,0.2,1.3,0.6s0.6,0.8,0.6,1.3s-0.2,1-0.6,1.3c-0.4,0.4-0.8,0.6-1.3,0.6c-0.5,0-1-0.2-1.3-0.6
			s-0.6-0.8-0.6-1.3s0.2-1,0.6-1.3S156.5,848.2,157,848.2 M157,847.2c-0.7,0-1.5,0.3-2.1,0.9c-1.1,1.1-1.1,3,0,4.1
			c0.6,0.6,1.3,0.9,2.1,0.9c0.7,0,1.5-0.3,2.1-0.9c1.1-1.1,1.1-3,0-4.1C158.5,847.5,157.8,847.2,157,847.2L157,847.2z"/>
	</g>
	<g>
		<g>
			<path class="st9" d="M159.3,835.4l-1.9,1.9c-0.2,0.2-0.4,0.2-0.6,0l-1.8-1.8c-0.2-0.2-0.4-0.2-0.6,0l-2.4,2.4
				c-0.2,0.2-0.2,0.4,0,0.6l1.8,1.8c0.2,0.2,0.2,0.4,0,0.6l-1.9,1.9c-0.2,0.2-0.2,0.4,0,0.6l2.4,2.4c0.2,0.2,0.4,0.2,0.6,0l1.9-1.9
				c0.2-0.2,0.4-0.2,0.6,0l1.8,1.8c0.2,0.2,0.4,0.2,0.6,0l2.4-2.4c0.2-0.2,0.2-0.4,0-0.6l-1.8-1.8c-0.2-0.2-0.2-0.4,0-0.6l1.9-1.9
				c0.2-0.2,0.2-0.4,0-0.6l-2.4-2.4C159.8,835.2,159.5,835.2,159.3,835.4z"/>
		</g>
		
			<ellipse transform="matrix(0.7071 -0.7071 0.7071 0.7071 -551.0848 356.2389)" class="st13" cx="154.5" cy="843.3" rx="1.5" ry="1.5"/>
		<g>
			
				<rect x="153.9" y="842.7" transform="matrix(0.7071 -0.7071 0.7071 0.7071 -551.0848 356.2389)" class="st14" width="1.2" height="1.2"/>
		</g>
		
			<ellipse transform="matrix(0.7071 -0.7071 0.7071 0.7071 -545.754 358.3543)" class="st13" cx="159.7" cy="838" rx="1.5" ry="1.5"/>
		<g>
			
				<ellipse transform="matrix(0.7071 -0.7071 0.7071 0.7071 -545.754 358.3543)" class="st14" cx="159.7" cy="838" rx="0.7" ry="0.7"/>
		</g>
		
			<ellipse transform="matrix(0.7071 -0.7071 0.7071 0.7071 -547.4041 354.8453)" class="st13" cx="154.6" cy="838.2" rx="1.5" ry="1.5"/>
		<g>
			<polygon class="st14" points="155.5,838 154.4,839 154.1,837.6 			"/>
		</g>
		
			<ellipse transform="matrix(0.7071 -0.7071 0.7071 0.7071 -549.4348 359.7479)" class="st13" cx="159.5" cy="843.1" rx="1.5" ry="1.5"/>
		<g>
			<g>
				<line class="st14" x1="158.8" y1="843.1" x2="160.2" y2="843.1"/>
			</g>
			<g>
				<line class="st14" x1="159.5" y1="843.8" x2="159.5" y2="842.4"/>
			</g>
		</g>
	</g>
	<g>
		<g>
			<path class="st14" d="M140.1,854.6l-1.9,1.9c-0.2,0.2-0.4,0.2-0.6,0l-1.8-1.8c-0.2-0.2-0.4-0.2-0.6,0l-2.4,2.4
				c-0.2,0.2-0.2,0.4,0,0.6l1.8,1.8c0.2,0.2,0.2,0.4,0,0.6l-1.9,1.9c-0.2,0.2-0.2,0.4,0,0.6l2.4,2.4c0.2,0.2,0.4,0.2,0.6,0l1.9-1.9
				c0.2-0.2,0.4-0.2,0.6,0l1.8,1.8c0.2,0.2,0.4,0.2,0.6,0l2.4-2.4c0.2-0.2,0.2-0.4,0-0.6l-1.8-1.8c-0.2-0.2-0.2-0.4,0-0.6l1.9-1.9
				c0.2-0.2,0.2-0.4,0-0.6l-2.4-2.4C140.5,854.5,140.3,854.5,140.1,854.6z"/>
		</g>
		<g>
			<path class="st5" d="M137.3,858.2l0,0.7c0,0.2-0.2,0.4-0.5,0.5l-0.7,0c-0.1,0-0.3,0-0.4-0.1l-0.9-0.9c-0.1-0.1-0.1-0.3,0-0.5
				l0.9-0.9c0.1-0.1,0.3-0.1,0.5,0l0.9,0.9C137.3,857.9,137.4,858.1,137.3,858.2z"/>
			<path class="st5" d="M138.4,861.7l0-0.7c0-0.2,0.2-0.4,0.5-0.5l0.7,0c0.1,0,0.3,0,0.4,0.1l0.9,0.9c0.1,0.1,0.1,0.3,0,0.5
				l-0.9,0.9c-0.1,0.1-0.3,0.1-0.5,0l-0.9-0.9C138.4,861.9,138.4,861.8,138.4,861.7z"/>
		</g>
		<g>
			<path class="st5" d="M136.2,860.5l0.7,0c0.2,0,0.4,0.2,0.5,0.5l0,0.7c0,0.1,0,0.3-0.1,0.4l-0.9,0.9c-0.1,0.1-0.3,0.1-0.5,0
				l-0.9-0.9c-0.1-0.1-0.1-0.3,0-0.5l0.9-0.9C135.9,860.5,136,860.5,136.2,860.5z"/>
			<path class="st5" d="M139.6,859.4l-0.7,0c-0.2,0-0.4-0.2-0.5-0.5l0-0.7c0-0.1,0-0.3,0.1-0.4l0.9-0.9c0.1-0.1,0.3-0.1,0.5,0
				l0.9,0.9c0.1,0.1,0.1,0.3,0,0.5l-0.9,0.9C139.9,859.4,139.7,859.4,139.6,859.4z"/>
		</g>
	</g>
</g>
<g>
	
		<rect x="145.3" y="254.3" transform="matrix(6.123234e-17 -1 1 6.123234e-17 -106.9924 405.5706)" class="st8" width="7.9" height="4.1"/>
	<g>
		<path class="st9" d="M154.4,299.7c-0.3,0-0.6-0.1-0.8-0.4l-0.3-0.4c-0.9-1.2-2.3-1.8-3.8-1.8s-2.9,0.7-3.8,1.8l-0.3,0.4
			c-0.2,0.3-0.5,0.4-0.8,0.4c-0.5,0-1-0.4-1.1-0.9c-0.5-3-2.3-5.5-5-6.7c-0.3-0.1-0.4-0.4-0.4-0.7v-12.2c0-0.4,0.2-0.9,0.5-1.2
			c3.7-3.8,6-8.7,6.6-13.9l0.5-4.3c0.1-0.5,0.5-0.9,1-0.9h5.7c0.5,0,1,0.4,1,0.9l0.5,4.3c0.6,5.2,3,10.2,6.6,13.9
			c0.3,0.3,0.5,0.7,0.5,1.2v12.2c0,0.3-0.2,0.5-0.4,0.7c-2.7,1.2-4.6,3.7-5,6.6C155.4,299.3,155,299.7,154.4,299.7z"/>
		<path d="M152.3,259.4c0.3,0,0.5,0.2,0.5,0.5l0.5,4.3c0.6,5.3,3,10.4,6.8,14.2c0.2,0.2,0.3,0.5,0.3,0.8v12.2c0,0.1-0.1,0.2-0.1,0.2
			c-2.8,1.3-4.8,3.9-5.3,7l0,0.1c0,0.3-0.3,0.5-0.6,0.5c-0.2,0-0.3-0.1-0.4-0.2l-0.3-0.4c-1-1.3-2.6-2-4.2-2s-3.2,0.7-4.2,2
			l-0.3,0.4c-0.1,0.1-0.3,0.2-0.4,0.2c-0.3,0-0.5-0.2-0.6-0.5l0-0.1c-0.5-3.1-2.5-5.7-5.3-7c-0.1,0-0.1-0.1-0.1-0.2v-12.2
			c0-0.3,0.1-0.6,0.3-0.8c3.8-3.8,6.2-8.9,6.8-14.2l0.5-4.3c0-0.3,0.3-0.5,0.5-0.5h2.8H152.3 M152.3,258.4h-2.8h-2.8
			c-0.8,0-1.4,0.6-1.5,1.4l-0.5,4.3c-0.6,5.2-2.9,10-6.5,13.7c-0.4,0.4-0.6,1-0.6,1.5v12.2c0,0.5,0.3,0.9,0.7,1.1
			c2.5,1.1,4.3,3.5,4.7,6.2l0,0.1c0.1,0.8,0.8,1.3,1.6,1.3c0.5,0,0.9-0.2,1.2-0.6l0.3-0.4c0.9-1.1,2.1-1.7,3.4-1.7s2.5,0.6,3.4,1.7
			l0.3,0.4c0.3,0.4,0.8,0.6,1.2,0.6c0.8,0,1.4-0.6,1.6-1.3l0-0.1c0.4-2.8,2.2-5.1,4.7-6.2c0.4-0.2,0.7-0.6,0.7-1.1v-12.2
			c0-0.6-0.2-1.1-0.6-1.5c-3.6-3.7-5.9-8.5-6.5-13.7l-0.5-4.3C153.7,259,153.1,258.4,152.3,258.4L152.3,258.4z"/>
	</g>
	<g>
		<path class="st9" d="M146.6,253.8c-0.5,0-1-0.4-1-0.9l-0.5-4.3c-0.6-5.2-3-10.2-6.6-13.9c-0.3-0.3-0.5-0.7-0.5-1.2v-12.2
			c0-0.3,0.2-0.5,0.4-0.7c2.7-1.2,4.6-3.7,5-6.6c0.1-0.6,0.5-1,1.1-1c0.3,0,0.6,0.2,0.8,0.4l0.3,0.4c0.9,1.2,2.3,1.8,3.8,1.8
			s2.9-0.7,3.8-1.8l0.3-0.4c0.2-0.3,0.5-0.4,0.8-0.4c0.5,0,1,0.4,1.1,0.9c0.5,3,2.3,5.5,5,6.7c0.3,0.1,0.4,0.4,0.4,0.7v12.2
			c0,0.4-0.2,0.9-0.5,1.2c-3.7,3.8-6,8.7-6.6,13.9l-0.5,4.3c-0.1,0.5-0.5,0.9-1,0.9H146.6z"/>
		<path d="M154.4,213.5c0.3,0,0.5,0.2,0.6,0.5l0,0.1c0.5,3.1,2.5,5.7,5.3,7c0.1,0,0.1,0.1,0.1,0.2v12.2c0,0.3-0.1,0.6-0.3,0.8
			c-3.8,3.8-6.2,8.9-6.8,14.2l-0.5,4.3c0,0.3-0.3,0.5-0.5,0.5h-2.8h-2.8c-0.3,0-0.5-0.2-0.5-0.5l-0.5-4.3c-0.6-5.3-3-10.4-6.8-14.2
			c-0.2-0.2-0.3-0.5-0.3-0.8v-12.2c0-0.1,0.1-0.2,0.1-0.2c2.8-1.3,4.8-3.9,5.3-7l0-0.1c0-0.3,0.3-0.5,0.6-0.5c0.2,0,0.3,0.1,0.4,0.2
			l0.3,0.4c1,1.3,2.6,2,4.2,2s3.2-0.7,4.2-2l0.3-0.4C154.1,213.6,154.3,213.5,154.4,213.5 M154.4,212.5L154.4,212.5
			c-0.5,0-0.9,0.2-1.2,0.6l-0.3,0.4c-0.9,1.1-2.1,1.7-3.4,1.7s-2.5-0.6-3.4-1.7l-0.3-0.4c-0.3-0.4-0.8-0.6-1.2-0.6
			c-0.8,0-1.4,0.6-1.6,1.3l0,0.1c-0.4,2.8-2.2,5.1-4.7,6.2c-0.4,0.2-0.7,0.6-0.7,1.1v12.2c0,0.6,0.2,1.1,0.6,1.5
			c3.6,3.7,5.9,8.5,6.5,13.7l0.5,4.3c0.1,0.8,0.8,1.4,1.5,1.4h2.8h2.8c0.8,0,1.4-0.6,1.5-1.4l0.5-4.3c0.6-5.2,2.9-10,6.5-13.7
			c0.4-0.4,0.6-1,0.6-1.5v-12.2c0-0.5-0.3-0.9-0.7-1.1c-2.5-1.1-4.3-3.5-4.7-6.2l0-0.1C155.9,213.1,155.2,212.5,154.4,212.5
			L154.4,212.5z"/>
	</g>
	<path d="M146,292.4c0-1.6,0.6-2.3,1.3-2.8c-0.5-0.8-1.3-2.8-1.3-4.5s0.5-3.7,0.8-4.2c-0.6-0.5-1.1-3.6-1.1-3.6s-1.9,2.9-2.1,5.8
		c1.5-1.8,1.5,1.5,1.5,2.1c0,0.5,0.3,3.6-1,3.2C144.8,290.4,145.5,291.9,146,292.4z"/>
	<path d="M152.6,292.4c0-1.6-0.6-2.3-1.3-2.8c0.5-0.8,1.3-2.8,1.3-4.5s-0.5-3.7-0.8-4.2c0.6-0.5,1.1-3.6,1.1-3.6s1.9,2.9,2.1,5.8
		c-1.5-1.8-1.5,1.5-1.5,2.1c0,0.5-0.3,3.6,1,3.2C153.7,290.4,153.1,291.9,152.6,292.4z"/>
	<path class="st5" d="M144.4,274.5c0.5-3.7,2.5-6.9,2.9-8.4c0.8-3.2,0.5-7.6,0.5-7.6"/>
	<path class="st5" d="M154.2,274.5c-0.5-3.7-2.5-6.9-2.9-8.4c-0.8-3.2-0.5-7.6-0.5-7.6"/>
	<path d="M152.9,220.4c0,1.6-0.6,2.3-1.3,2.8c0.5,0.8,1.3,2.8,1.3,4.5s-0.5,3.7-0.8,4.2c0.6,0.5,1.1,3.6,1.1,3.6s1.9-2.9,2.1-5.8
		c-1.5,1.8-1.5-1.5-1.5-2.1c0-0.5-0.3-3.6,1-3.2C154.1,222.3,153.4,220.8,152.9,220.4z"/>
	<path d="M146.3,220.4c0,1.6,0.6,2.3,1.3,2.8c-0.5,0.8-1.3,2.8-1.3,4.5s0.5,3.7,0.8,4.2c-0.6,0.5-1.1,3.6-1.1,3.6s-1.9-2.9-2.1-5.8
		c1.5,1.8,1.5-1.5,1.5-2.1c0-0.5,0.3-3.6-1-3.2C145.2,222.3,145.8,220.8,146.3,220.4z"/>
	<path class="st5" d="M154.5,238.2c-0.5,3.7-2.5,6.9-2.9,8.4c-0.8,3.3-0.8,3.2-0.5,7.6"/>
	<path class="st5" d="M144.5,238.2c0.5,3.7,2.5,6.9,2.9,8.4c0.8,3.2,0.5,7.6,0.5,7.6"/>
</g>
</svg>
