<?xml version="1.0" encoding="utf-8"?>
<!-- Generator: Adobe Illustrator 19.0.0, SVG Export Plug-In . SVG Version: 6.00 Build 0)  -->
<svg version="1.1" id="dude" xmlns="http://www.w3.org/2000/svg" xmlns:xlink="http://www.w3.org/1999/xlink" x="0px" y="0px"
	 viewBox="-21.7 -12.6 70.8 172.6" style="enable-background:new -21.7 -12.6 70.8 172.6;" xml:space="preserve">
<style type="text/css">
	.st0{fill:#FFFFFF;stroke:#221F1F;stroke-width:2;stroke-miterlimit:10;}
	.st1{fill:none;stroke:#221F1F;stroke-width:1.6585;stroke-miterlimit:10;}
	.st2{fill:none;stroke:#221F1F;stroke-width:2;stroke-miterlimit:10;}
	.st3{fill:#CE6E6E;}
</style>
<g>
	<polygon id="XMLID_1_" class="st0" points="27.5,106.2 0,106.2 0,74 0,0 27.5,0 	"/>
	<polyline id="XMLID_921_" class="st1" points="12.5,18.8 15,18.8 15,13.1 17.7,13.1 	"/>
	<line id="XMLID_4_" class="st1" x1="9.1" y1="13.1" x2="11.5" y2="13.1"/>
	<line id="XMLID_8_" class="st2" x1="13.8" y1="106" x2="13.8" y2="83"/>
	<polyline id="XMLID_3_" class="st2" points="27.5,64 20.3,64 20.3,34.7 	"/>
	<polyline id="XMLID_6_" class="st2" points="0,64 7,64 7,34.7 	"/>
	<line id="XMLID_7_" class="st2" x1="4" y1="0" x2="4" y2="4"/>
	<line id="XMLID_9_" class="st2" x1="8" y1="0" x2="8" y2="4"/>
	<circle class="st3" cx="5.4" cy="22.2" r="2"/>
	<circle class="st3" cx="20.9" cy="22.2" r="2"/>
	<g>
		<line class="st2" x1="2" y1="113.7" x2="2" y2="129.7"/>
		<line class="st2" x1="13.7" y1="113.7" x2="13.7" y2="149.7"/>
		<line class="st2" x1="25.5" y1="113.7" x2="25.5" y2="134.3"/>
		<line class="st2" x1="2" y1="133.7" x2="2" y2="137.3"/>
	</g>
</g>
</svg>
