<?xml version="1.0" encoding="utf-8"?>
<!-- Generator: Adobe Illustrator 19.0.0, SVG Export Plug-In . SVG Version: 6.00 Build 0)  -->
<svg version="1.1" id="dude" xmlns="http://www.w3.org/2000/svg" xmlns:xlink="http://www.w3.org/1999/xlink" x="0px" y="0px"
	 viewBox="-21.7 -12.6 70.8 131.3" style="enable-background:new -21.7 -12.6 70.8 131.3;" xml:space="preserve">
<style type="text/css">
	.st0{fill:#CE6E6E;}
	.st1{fill:#6ECC7A;}
	.st2{fill:none;stroke:#221F1F;stroke-width:1.6585;stroke-miterlimit:10;}
	.st3{fill:none;stroke:#221F1F;stroke-width:2;stroke-miterlimit:10;}
</style>
<g>
	<rect x="-4.7" y="54.3" class="st0" width="9.3" height="32.7"/>
	<rect x="22.7" y="38.7" class="st1" width="9.3" height="32.7"/>
	<polygon id="XMLID_1_" class="st2" points="27.5,106.2 0,106.2 0,74 0,0 27.5,0 	"/>
	<polyline id="XMLID_921_" class="st2" points="12.5,18.8 15,18.8 15,13.1 17.7,13.1 	"/>
	<line id="XMLID_4_" class="st2" x1="9.1" y1="13.1" x2="11.5" y2="13.1"/>
	<line id="XMLID_8_" class="st3" x1="14" y1="106" x2="14" y2="83"/>
	<polyline id="XMLID_3_" class="st3" points="28,64 19,64 19,32 	"/>
	<polyline id="XMLID_6_" class="st3" points="0,64 7,64 7,32 	"/>
	<line id="XMLID_7_" class="st3" x1="3" y1="0" x2="3" y2="4"/>
	<line id="XMLID_9_" class="st3" x1="7" y1="0" x2="7" y2="4"/>
	<circle class="st0" cx="5.4" cy="22.2" r="2"/>
	<circle class="st0" cx="20.9" cy="22.2" r="2"/>
</g>
</svg>
